<svg width="255" height="77" viewBox="0 0 255 77" fill="none" xmlns="http://www.w3.org/2000/svg">
<g clip-path="url(#clip0_628_121)">
<path d="M37.0163 11.6371C37.0163 13.0535 36.8184 14.2927 36.4227 15.355C36.0478 16.3964 35.5062 17.292 34.7981 18.0418C34.0899 18.8125 33.2359 19.4686 32.2362 20.0101C31.2572 20.5516 30.1638 21.0099 28.9557 21.3848V21.6972C31.9966 22.4679 34.4023 23.78 36.1727 25.6338C37.0475 26.5919 37.7244 27.6958 38.2035 28.9455C38.7034 30.1952 38.9533 31.6011 38.9533 33.1632C38.9533 41.5153 32.8506 45.6914 20.6452 45.6914H0.0252045V42.286H2.64957C3.75347 42.286 4.5866 42.0048 5.14897 41.4424C5.71133 40.8801 5.99251 39.7762 5.99251 38.1307V7.48189C5.99251 5.96142 5.70092 4.89918 5.11772 4.29516C4.53453 3.69114 3.71181 3.38913 2.64957 3.38913H0.0252045V0.0149433H18.7082C24.7901 0.0149433 29.3619 0.952217 32.4236 2.82676C35.4854 4.70131 37.0163 7.6381 37.0163 11.6371ZM18.3958 3.92025H16.0838V19.8539H18.5207C21.4367 19.8539 23.4779 19.2082 24.6443 17.9169C25.2483 17.2504 25.6648 16.4068 25.894 15.3862C26.1439 14.3448 26.2689 13.0951 26.2689 11.6371C26.2689 8.742 25.6753 6.73207 24.488 5.60734C23.3008 4.48261 21.2701 3.92025 18.3958 3.92025ZM20.4578 23.7592H16.0838V41.7861H20.3328C23.1863 41.7861 25.2066 41.1196 26.3938 39.7866C27.581 38.4744 28.1747 36.1937 28.1747 32.9445C28.1747 31.3824 28.0497 30.0285 27.7997 28.883C27.5498 27.7166 27.1228 26.7585 26.5188 26.0087C25.9148 25.2588 25.1233 24.6965 24.1444 24.3216C23.1654 23.9467 21.9366 23.7592 20.4578 23.7592ZM82.3178 42.286V45.6914H69.5709L68.165 41.1613H67.8526C66.6237 43.2857 65.1657 44.6812 63.4786 45.3477C61.8124 45.9934 59.8962 46.3163 57.73 46.3163C54.3975 46.3163 51.8356 45.2853 50.0444 43.2233C48.274 41.1613 47.3888 37.9745 47.3888 33.6631V19.3228C47.3888 17.5315 47.0555 16.3339 46.389 15.7299C45.7433 15.105 44.6186 14.7926 43.0148 14.7926H42.8898V11.3872H57.1052V31.8822C57.1052 34.465 57.428 36.6103 58.0737 38.3182C58.7402 40.0261 60.042 40.8801 61.979 40.8801C63.9785 40.8801 65.4677 40.0053 66.4467 38.2557C66.9257 37.4017 67.2694 36.3812 67.4777 35.1939C67.6859 34.0067 67.7901 32.6633 67.7901 31.1637V18.8854C67.7901 17.115 67.3735 15.9902 66.5404 15.5112C65.7073 15.0321 64.5825 14.7926 63.1662 14.7926H62.9787V11.3872H77.5065V38.2557C77.5065 39.9845 77.871 41.0884 78.6 41.5674C79.329 42.0465 80.3912 42.286 81.7867 42.286H82.3178ZM124.933 42.286V45.6914H110.717V24.634C110.717 22.0513 110.353 19.9685 109.624 18.3855C108.916 16.8026 107.572 16.0111 105.593 16.0111C104.177 16.0111 103.063 16.4797 102.251 17.417C101.438 18.3543 100.865 19.5831 100.532 21.1036C100.199 22.6032 100.032 24.207 100.032 25.9149V38.1307C100.032 39.8387 100.428 40.9634 101.22 41.5049C102.011 42.0256 103.157 42.286 104.656 42.286H104.844V45.6914H85.1921V42.286H85.3171C86.9 42.286 88.1289 42.0152 89.0037 41.4737C89.8785 40.9113 90.3159 39.7137 90.3159 37.8808V18.9479C90.3159 17.2191 89.9202 16.0944 89.1287 15.5737C88.3372 15.053 87.1916 14.7926 85.692 14.7926H85.5046V11.3872H98.9388L99.7824 15.9486H100.095C101.324 13.6575 102.709 12.1891 104.25 11.5434C105.812 10.8977 107.687 10.5749 109.874 10.5749C111.519 10.5749 112.998 10.8144 114.31 11.2935C115.643 11.7725 116.757 12.5119 117.653 13.5117C118.569 14.5114 119.257 15.7924 119.715 17.3545C120.194 18.8958 120.434 20.7495 120.434 22.9157V37.7558C120.434 39.6095 120.756 40.828 121.402 41.4112C122.069 41.9944 123.183 42.286 124.745 42.286H124.933ZM162.111 12.6057C162.111 13.7304 161.747 14.626 161.018 15.2925C160.309 15.9382 159.153 16.261 157.55 16.261C157.55 15.4279 157.31 14.7718 156.831 14.2927C156.352 13.8137 155.779 13.5742 155.113 13.5742C154.759 13.5742 154.373 13.6471 153.957 13.7929C153.561 13.9387 153.249 14.0949 153.019 14.2615C153.894 15.2196 154.634 16.4485 155.238 17.9481C155.842 19.4477 156.144 20.937 156.144 22.4158C156.144 24.0196 155.883 25.5088 155.363 26.8835C154.863 28.2373 154.082 29.4141 153.019 30.4138C151.957 31.4136 150.614 32.1947 148.989 32.757C147.365 33.3194 145.438 33.6006 143.209 33.6006C142.689 33.6006 142.012 33.5797 141.179 33.5381C140.366 33.4756 139.814 33.434 139.523 33.4131C138.94 33.7255 138.408 34.1629 137.929 34.7253C137.45 35.2877 137.211 35.9333 137.211 36.6623C137.211 37.3705 137.482 37.8912 138.023 38.2245C138.585 38.5577 139.314 38.7243 140.21 38.7243H147.958C150.083 38.7243 151.916 38.9535 153.457 39.4117C154.998 39.8491 156.279 40.4843 157.3 41.3175C158.299 42.1506 159.039 43.1816 159.518 44.4105C159.997 45.6185 160.236 46.9828 160.236 48.5032C160.236 52.5439 158.726 55.6265 155.706 57.751C154.186 58.8132 152.259 59.6255 149.926 60.1879C147.594 60.7711 144.844 61.0627 141.678 61.0627C131.702 61.0627 126.713 58.0947 126.713 52.1586C126.713 49.8675 127.453 48.1075 128.932 46.8786C130.41 45.6706 132.556 44.952 135.368 44.7229C134.139 44.2438 133.045 43.5461 132.087 42.6296C131.15 41.6924 130.681 40.4947 130.681 39.0368C130.681 37.5788 131.233 36.3187 132.337 35.2564C133.462 34.1942 134.805 33.2153 136.367 32.3196C134.409 31.6115 132.826 30.4034 131.618 28.6955C130.431 26.9668 129.838 24.8735 129.838 22.4158C129.838 18.6667 130.921 15.7611 133.087 13.6991C135.274 11.6163 138.648 10.5749 143.209 10.5749C144.73 10.5749 146.136 10.7728 147.427 11.1685C148.739 11.5434 149.874 12.0016 150.833 12.5432C151.666 11.6475 152.582 10.8248 153.582 10.075C154.602 9.32519 155.904 8.95028 157.487 8.95028C158.903 8.95028 160.028 9.29395 160.861 9.98129C161.694 10.6686 162.111 11.5434 162.111 12.6057ZM138.554 22.4158C138.554 24.5403 138.867 26.3107 139.492 27.727C140.137 29.1225 141.314 29.8202 143.022 29.8202C144.771 29.8202 145.938 29.1225 146.521 27.727C147.104 26.3315 147.396 24.5299 147.396 22.3221C147.396 20.0934 147.094 18.2189 146.49 16.6984C145.886 15.1779 144.709 14.4177 142.959 14.4177C141.252 14.4177 140.085 15.1988 139.46 16.7609C138.856 18.3022 138.554 20.1872 138.554 22.4158ZM134.274 52.0336C134.274 55.4911 136.784 57.2199 141.803 57.2199C145.553 57.2199 148.281 56.6783 149.989 55.5953C151.697 54.5122 152.551 52.9188 152.551 50.8152C152.551 49.4613 152.124 48.5136 151.27 47.9721C150.416 47.4306 149.125 47.1598 147.396 47.1598H139.96C138.461 47.1598 137.138 47.4826 135.992 48.1283C134.847 48.7948 134.274 50.0966 134.274 52.0336ZM180.95 14.4802C179.284 14.4802 178.149 15.1467 177.545 16.4797C176.962 17.7919 176.67 19.4269 176.67 21.3848C173.796 21.3848 171.63 21.0619 170.172 20.4163C168.734 19.7706 168.016 18.6667 168.016 17.1046C168.016 15.9382 168.36 14.9384 169.047 14.1053C169.755 13.2722 170.713 12.5952 171.921 12.0745C173.108 11.5538 174.493 11.1789 176.076 10.9498C177.68 10.6999 179.388 10.5749 181.2 10.5749C183.45 10.5749 185.407 10.7728 187.074 11.1685C188.761 11.5434 190.167 12.1578 191.291 13.0118C193.52 14.7406 194.634 17.5524 194.634 21.4473V37.7558C194.634 39.4429 194.905 40.6197 195.447 41.2862C196.009 41.9527 197.019 42.286 198.477 42.286H198.727V45.6914H186.824L185.48 41.2862H184.918C183.939 42.4526 183.023 43.4107 182.169 44.1605C181.336 44.9103 180.398 45.4519 179.357 45.7851C178.315 46.1392 176.993 46.3163 175.389 46.3163C173.973 46.3163 172.661 46.108 171.453 45.6914C170.244 45.2748 169.182 44.6292 168.266 43.7544C167.37 42.9004 166.652 41.8278 166.11 40.5364C165.589 39.2242 165.329 37.6829 165.329 35.9125C165.329 32.4342 166.516 29.8619 168.891 28.1956C171.286 26.5294 174.879 25.6233 179.669 25.4775L184.918 25.2901V21.7597C184.918 19.6352 184.699 17.896 184.262 16.5422C183.825 15.1675 182.721 14.4802 180.95 14.4802ZM175.264 36.1625C175.264 39.8282 176.472 41.6611 178.888 41.6611C180.804 41.6611 182.283 40.8905 183.325 39.3492C184.387 37.8079 184.918 35.85 184.918 33.4756V28.6643L182.044 28.8517C179.565 28.9767 177.816 29.6432 176.795 30.8512C175.774 32.0385 175.264 33.8089 175.264 36.1625Z" fill="white"/>
<path d="M180.283 74.773V76.4766H167.076V74.773H169.702C170.286 74.773 170.697 74.6115 170.937 74.2885C171.176 73.9655 171.296 73.4341 171.296 72.6944V56.6591C170.598 57.5239 169.905 58.2949 169.218 58.9722C168.53 59.6494 167.847 59.988 167.17 59.988C166.628 59.988 166.18 59.764 165.826 59.316C165.482 58.868 165.31 58.3053 165.31 57.6281C166.061 57.4301 166.826 57.1436 167.608 56.7685C168.389 56.3934 169.265 55.8568 170.234 55.1587L172.484 53.502H176.063V72.6944C176.063 73.382 176.173 73.903 176.391 74.2573C176.61 74.6011 177.048 74.773 177.704 74.773H180.283ZM198.678 65.0206C198.678 66.7814 198.532 68.386 198.241 69.8343C197.949 71.2825 197.485 72.5224 196.85 73.554C196.214 74.5855 195.401 75.3825 194.411 75.9452C193.422 76.5078 192.229 76.7891 190.832 76.7891C189.374 76.7891 188.144 76.5078 187.144 75.9452C186.144 75.3825 185.336 74.5855 184.722 73.554C184.096 72.5224 183.648 71.2825 183.377 69.8343C183.107 68.3756 182.971 66.7606 182.971 64.9893C182.971 63.218 183.107 61.6134 183.377 60.1756C183.648 58.7377 184.096 57.5082 184.722 56.4872C185.336 55.4661 186.144 54.6794 187.144 54.1272C188.155 53.575 189.395 53.2989 190.864 53.2989C192.249 53.2989 193.437 53.575 194.427 54.1272C195.417 54.6794 196.23 55.4661 196.865 56.4872C197.49 57.5082 197.949 58.7429 198.241 60.1912C198.532 61.6291 198.678 63.2389 198.678 65.0206ZM187.925 65.0206C187.925 66.5522 187.967 67.9171 188.05 69.1153C188.134 70.3031 188.285 71.3138 188.504 72.1473C188.712 72.9705 189.004 73.606 189.379 74.0541C189.754 74.4917 190.239 74.7105 190.832 74.7105C191.426 74.7105 191.911 74.4917 192.286 74.0541C192.661 73.606 192.958 72.9705 193.177 72.1473C193.385 71.3138 193.526 70.3031 193.599 69.1153C193.682 67.9171 193.724 66.5522 193.724 65.0206C193.724 63.4889 193.682 62.1292 193.599 60.9414C193.526 59.7432 193.385 58.7325 193.177 57.9094C192.968 57.0863 192.677 56.4611 192.302 56.0339C191.926 55.5963 191.447 55.3775 190.864 55.3775C190.27 55.3775 189.78 55.5963 189.395 56.0339C189.019 56.4611 188.723 57.0863 188.504 57.9094C188.285 58.7325 188.134 59.7432 188.05 60.9414C187.967 62.1292 187.925 63.4889 187.925 65.0206ZM201.866 74.1791C201.866 73.2518 202.106 72.5954 202.585 72.2099C203.065 71.8139 203.7 71.616 204.492 71.616C205.263 71.616 205.894 71.8139 206.383 72.2099C206.873 72.5954 207.118 73.2518 207.118 74.1791C207.118 75.0752 206.873 75.7264 206.383 76.1327C205.894 76.5287 205.263 76.7266 204.492 76.7266C203.7 76.7266 203.065 76.5287 202.585 76.1327C202.106 75.7368 201.866 75.0856 201.866 74.1791ZM210.15 70.647C210.15 69.9593 210.259 69.3394 210.478 68.7871C210.707 68.2245 211.03 67.7192 211.447 67.2711C211.864 66.8127 212.359 66.3959 212.932 66.0208C213.515 65.6457 214.156 65.281 214.854 64.9268C213.583 64.187 212.604 63.3483 211.916 62.4105C211.239 61.4728 210.9 60.3788 210.9 59.1284C210.9 58.3887 211.025 57.6697 211.275 56.9717C211.536 56.2631 211.958 55.638 212.541 55.0962C213.125 54.5544 213.89 54.122 214.838 53.799C215.787 53.4656 216.948 53.2989 218.324 53.2989C219.449 53.2989 220.434 53.4395 221.278 53.7208C222.132 54.0022 222.846 54.3929 223.419 54.893C224.565 55.8933 225.138 57.2321 225.138 58.9096C225.138 59.5452 225.034 60.1079 224.825 60.5976C224.627 61.0873 224.341 61.5301 223.966 61.926C223.591 62.3324 223.137 62.7075 222.606 63.0513C222.075 63.3951 221.476 63.739 220.809 64.0828C222.747 65.031 224.117 65.9948 224.919 66.9742C225.346 67.4847 225.654 68.0265 225.841 68.5996C226.029 69.1726 226.123 69.7822 226.123 70.4282C226.123 72.4495 225.404 74.0124 223.966 75.1168C222.507 76.2317 220.496 76.7891 217.933 76.7891C216.599 76.7891 215.443 76.6276 214.463 76.3046C213.494 75.9816 212.687 75.544 212.041 74.9918C211.405 74.4396 210.931 73.7884 210.619 73.0382C210.306 72.288 210.15 71.4909 210.15 70.647ZM221.106 58.8471C221.106 58.222 220.986 57.6281 220.746 57.0654C220.517 56.5028 220.178 56.0443 219.73 55.6901C219.293 55.3358 218.756 55.1587 218.121 55.1587C217.235 55.1587 216.558 55.5077 216.089 56.2058C215.63 56.8935 215.401 57.7375 215.401 58.7377C215.401 59.8526 215.703 60.7174 216.308 61.3321C216.912 61.9364 217.761 62.4939 218.855 63.0044C219.657 62.546 220.23 61.999 220.574 61.3634C220.929 60.7174 221.106 59.8786 221.106 58.8471ZM218.089 74.9762C219.204 74.9762 220.079 74.6011 220.715 73.8509C221.361 73.0903 221.684 72.1317 221.684 70.9752C221.684 69.9645 221.319 69.0945 220.59 68.3651C220.204 68.0005 219.715 67.6462 219.121 67.3024C218.537 66.9481 217.834 66.5834 217.011 66.2084C216.25 66.6981 215.636 67.3128 215.167 68.0526C214.708 68.7923 214.479 69.6988 214.479 70.772C214.479 71.9911 214.802 72.9965 215.448 73.7884C216.104 74.5803 216.985 74.9762 218.089 74.9762ZM239.72 60.3788C239.72 62.5668 239.246 64.2912 238.298 65.5519C237.818 66.1771 237.214 66.6616 236.485 67.0054C235.766 67.3493 234.922 67.5212 233.953 67.5212C232.942 67.5212 232.072 67.3493 231.343 67.0054C230.613 66.6616 230.019 66.1771 229.561 65.5519C229.092 64.9268 228.748 64.1766 228.529 63.3014C228.311 62.4262 228.201 61.4519 228.201 60.3788C228.201 59.3056 228.311 58.3366 228.529 57.4718C228.748 56.5966 229.092 55.8464 229.561 55.2212C230.03 54.6065 230.629 54.1324 231.358 53.799C232.088 53.4656 232.963 53.2989 233.984 53.2989C234.943 53.2989 235.781 53.4656 236.5 53.799C237.219 54.1324 237.818 54.6065 238.298 55.2212C239.246 56.4611 239.72 58.1803 239.72 60.3788ZM245.831 53.6271H248.3L237.282 76.4766H234.797L245.831 53.6271ZM231.812 60.3788C231.812 62.1605 231.973 63.515 232.296 64.4423C232.629 65.4217 233.182 65.9114 233.953 65.9114C234.724 65.9114 235.276 65.4217 235.609 64.4423C235.776 63.9734 235.891 63.4004 235.953 62.7231C236.026 62.0354 236.063 61.254 236.063 60.3788C236.063 59.5244 236.026 58.7638 235.953 58.0969C235.891 57.4197 235.781 56.8466 235.625 56.3778C235.292 55.4192 234.745 54.9399 233.984 54.9399C233.223 54.9399 232.666 55.4192 232.312 56.3778C231.978 57.2842 231.812 58.6179 231.812 60.3788ZM255.02 69.6623C255.02 71.8504 254.546 73.5748 253.598 74.8355C253.119 75.4607 252.515 75.9452 251.785 76.289C251.066 76.6224 250.222 76.7891 249.253 76.7891C248.243 76.7891 247.373 76.6224 246.643 76.289C245.914 75.9452 245.32 75.4607 244.862 74.8355C244.393 74.2104 244.049 73.4602 243.83 72.585C243.611 71.7097 243.502 70.7355 243.502 69.6623C243.502 68.5892 243.611 67.6202 243.83 66.7554C244.049 65.8801 244.393 65.13 244.862 64.5048C245.331 63.8901 245.93 63.416 246.659 63.0826C247.388 62.7492 248.264 62.5824 249.285 62.5824C250.243 62.5824 251.082 62.7492 251.801 63.0826C252.52 63.416 253.119 63.8901 253.598 64.5048C254.546 65.7447 255.02 67.4639 255.02 69.6623ZM247.112 69.6623C247.112 71.444 247.274 72.7986 247.597 73.7259C247.93 74.7053 248.482 75.195 249.253 75.195C250.024 75.195 250.577 74.7053 250.91 73.7259C251.077 73.257 251.191 72.6839 251.254 72.0067C251.327 71.319 251.363 70.5376 251.363 69.6623C251.363 68.808 251.327 68.0474 251.254 67.3805C251.191 66.7033 251.082 66.1302 250.926 65.6613C250.592 64.7028 250.045 64.2235 249.285 64.2235C248.524 64.2235 247.967 64.7028 247.612 65.6613C247.279 66.5678 247.112 67.9015 247.112 69.6623Z" fill="white"/>
</g>
<defs>
<clipPath id="clip0_628_121">
<rect width="254.952" height="76.8004" fill="white"/>
</clipPath>
</defs>
</svg>
