<svg width="489" height="289" viewBox="0 0 489 289" fill="none" xmlns="http://www.w3.org/2000/svg">
<g filter="url(#filter0_d_628_76)">
<path fill-rule="evenodd" clip-rule="evenodd" d="M409.18 88.3853C404.753 85.5355 400.229 82.326 394.613 80.0158L370.445 104.668C364.745 100.255 350.054 86.2825 345.585 80.3616C323.576 86.4485 331.558 95.4268 309.852 79.5316C303.751 75.0632 303.71 74.9526 298.232 72.0613C293.888 78.4802 287.815 95.8003 284.01 104.958C271.684 134.632 278.117 116.399 261.185 130.012C254.06 135.739 238.04 183.148 230.058 194.243C218.106 205.227 213.388 181.875 186.841 230.1C181.792 225.272 179.426 222.561 175.124 216.792C168.663 208.104 171.707 207.343 160.363 204.341C131.727 196.76 139.626 202.266 115.43 208.422C113.106 202.46 110.312 198.918 106.964 194.035C105.027 191.199 104.308 190.023 102.316 187.339L95.5648 179.924C86.5036 192.278 79.9739 208.962 70.8159 218.618C63.6361 211.867 56.3318 202.82 44.9603 199.831C26.8655 237.225 1.9506 232.023 3.30632 245.663C9.51775 244.875 23.5454 236.173 28.4702 231.608L47.1875 207.62C53.7448 210.539 55.3357 213.333 60.7448 217.58L73.3337 227.015C82.1735 217.179 88.5648 200.675 96.9343 190.48C100.808 194.699 111.543 210.76 113.189 215.561C132.999 211.881 136.14 201.754 158.813 210.65C169.493 214.841 177.448 232.466 186.481 239.867C192.651 232.383 195.224 227.748 200.73 219.766C207.869 209.391 206.568 206.624 218.977 204.037C240.281 199.596 232.106 205.116 249.772 166.381C272.819 115.887 262.872 141.798 279.279 127.618C285.823 121.96 295.202 91.2904 300.777 81.1225C306.02 84.8715 316.991 93.2272 322.856 96.2153L343.704 87.1126C353.789 95.0394 358.949 104.958 370.583 113.203C380.364 107.628 390.117 96.243 397.338 87.9841C402.581 91.4149 405.237 94.1956 412.514 96.8517C416.816 87.1956 425.905 83.0316 433.057 76.7095C446.587 64.757 451.871 28.9963 463.243 20.4469C477.34 9.8501 485.46 11.192 486.11 0.429199C474.767 2.53196 456.63 15.1485 451.304 26.6445C448.883 31.8599 447.389 35.7749 445.051 40.9073C432.462 68.6028 430.871 75.0494 409.208 88.413L409.18 88.3853Z" fill="white" stroke="white" stroke-width="0.664028" stroke-miterlimit="2.61313"/>
<path d="M12.5197 283.029H0.705536V287.525H12.5197V283.029Z" fill="white" stroke="white" stroke-width="0.664028" stroke-miterlimit="2.61313"/>
<path d="M38.9564 277.744H27.1422V287.525H38.9564V277.744Z" fill="white" stroke="white" stroke-width="0.664028" stroke-miterlimit="2.61313"/>
<path d="M65.4068 260.867H53.5927V287.995H65.4068V260.867Z" fill="white" stroke="white" stroke-width="0.664028" stroke-miterlimit="2.61313"/>
<path d="M91.8573 250.367H80.0431V287.525H91.8573V250.367Z" fill="white" stroke="white" stroke-width="0.664028" stroke-miterlimit="2.61313"/>
<path d="M118.308 242.371H106.494V287.774H118.308V242.371Z" fill="white" stroke="white" stroke-width="0.664028" stroke-miterlimit="2.61313"/>
<path d="M144.744 238.871H132.93V287.525H144.744V238.871Z" fill="white" stroke="white" stroke-width="0.664028" stroke-miterlimit="2.61313"/>
<path d="M171.195 257.367H159.381V287.995H171.195V257.367Z" fill="white" stroke="white" stroke-width="0.664028" stroke-miterlimit="2.61313"/>
<path d="M197.645 271.076H185.831V287.525H197.645V271.076Z" fill="white" stroke="white" stroke-width="0.664028" stroke-miterlimit="2.61313"/>
<path d="M224.082 241.873H212.268V287.704H224.082V241.873Z" fill="white" stroke="white" stroke-width="0.664028" stroke-miterlimit="2.61313"/>
<path d="M250.532 227.873H238.718V287.525H250.532V227.873Z" fill="white" stroke="white" stroke-width="0.664028" stroke-miterlimit="2.61313"/>
<path d="M276.983 175.871H265.169V287.995H276.983V175.871Z" fill="white" stroke="white" stroke-width="0.664028" stroke-miterlimit="2.61313"/>
<path d="M303.433 151.869H291.619V287.525H303.433V151.869Z" fill="white" stroke="white" stroke-width="0.664028" stroke-miterlimit="2.61313"/>
<path d="M329.87 128.365H318.056V287.774H329.87V128.365Z" fill="white" stroke="white" stroke-width="0.664028" stroke-miterlimit="2.61313"/>
<path d="M356.32 149.365H344.506V287.525H356.32V149.365Z" fill="white" stroke="white" stroke-width="0.664028" stroke-miterlimit="2.61313"/>
<path d="M382.771 141.867H370.957V287.995H382.771V141.867Z" fill="white" stroke="white" stroke-width="0.664028" stroke-miterlimit="2.61313"/>
<path d="M409.208 135.863H397.393V287.525H409.208V135.863Z" fill="white" stroke="white" stroke-width="0.664028" stroke-miterlimit="2.61313"/>
<path d="M435.658 121.863H423.844V287.525H435.658V121.863Z" fill="white" stroke="white" stroke-width="0.664028" stroke-miterlimit="2.61313"/>
<path d="M462.108 88.3713H450.294V287.068H462.108V88.3713Z" fill="white" stroke="white" stroke-width="0.664028" stroke-miterlimit="2.61313"/>
<path d="M488.559 50.3696H476.745V287.054H488.559V50.3696Z" fill="white" stroke="white" stroke-width="0.664028" stroke-miterlimit="2.61313"/>
<path fill-rule="evenodd" clip-rule="evenodd" d="M11.7865 171.015C12.3399 172.855 11.7727 191.254 11.911 196.221C11.9525 197.521 12.492 198.337 14.1936 197.909C15.6738 197.355 15.1343 194.035 15.1343 191.794L15.1205 171.057C16.5869 171.652 23.3378 177.946 24.4307 178.347C26.1323 178.97 27.5434 177.365 26.0631 175.996L16.9604 168.581C13.4051 165.675 13.6679 165.717 10.0711 168.65L0.843875 176.175C-0.401179 177.365 0.747037 178.915 2.57312 178.389C3.25098 178.195 7.59483 174.336 8.82605 173.464C9.61458 172.897 10.7628 171.762 11.7727 171.029L11.7865 171.015Z" fill="white" stroke="white" stroke-width="0.664028" stroke-miterlimit="2.61313"/>
</g>
<defs>
<filter id="filter0_d_628_76" x="-4.00937" y="0.0253906" width="496.9" height="296.302" filterUnits="userSpaceOnUse" color-interpolation-filters="sRGB">
<feFlood flood-opacity="0" result="BackgroundImageFix"/>
<feColorMatrix in="SourceAlpha" type="matrix" values="0 0 0 0 0 0 0 0 0 0 0 0 0 0 0 0 0 0 127 0" result="hardAlpha"/>
<feOffset dy="4"/>
<feGaussianBlur stdDeviation="2"/>
<feComposite in2="hardAlpha" operator="out"/>
<feColorMatrix type="matrix" values="0 0 0 0 0 0 0 0 0 0 0 0 0 0 0 0 0 0 0.25 0"/>
<feBlend mode="normal" in2="BackgroundImageFix" result="effect1_dropShadow_628_76"/>
<feBlend mode="normal" in="SourceGraphic" in2="effect1_dropShadow_628_76" result="shape"/>
</filter>
</defs>
</svg>
