<svg width="314" height="359" viewBox="0 0 314 359" fill="none" xmlns="http://www.w3.org/2000/svg">
<path d="M153.974 338.346C234.435 338.346 299.661 273.12 299.661 192.66C299.661 112.199 234.435 46.9727 153.974 46.9727C73.5133 46.9727 8.28711 112.199 8.28711 192.66C8.28711 273.12 73.5133 338.346 153.974 338.346Z" fill="#FFEBCB" stroke="#FFEBCB" stroke-width="10.667" stroke-miterlimit="2.61313"/>
<path fill-rule="evenodd" clip-rule="evenodd" d="M92.4581 51.96C63.9617 58.3007 59.2258 81.5874 96.0515 95.1623C97.5173 95.7033 98.9377 96.1193 100.339 96.7652L105.552 99.8178C104.465 116.519 87.7799 102.96 95.5589 131.145C61.5814 156.116 78.051 141.564 48.4283 170.409C41.6508 177.009 40.846 178.725 34.9489 186.268C-36.6458 277.842 12.8972 358.011 83.6521 355.029C120.463 353.48 85.3382 348.551 132.758 355.923C173.825 362.308 182.377 353.976 206.503 348.367C214.861 346.424 223.133 347.208 232.392 344.511C290.918 327.475 290.534 244.489 246.933 189.068C238.224 177.998 229.742 168.744 219.654 159.5C213.688 154.036 211.031 150.534 204.403 145.401L188.37 132.077C189.959 113.848 189.447 118.177 181.905 105.691C191.583 95.2806 217.031 89.0666 227.634 77.4209C244.742 58.6316 227.81 40.0561 208.67 34.9798C212.807 -3.69845 175.185 -6.99406 151.498 9.09155C138.046 18.2256 138.264 22.761 119.228 27.6652C103.288 31.7703 95.4161 36.4617 92.4581 51.96Z" fill="white"/>
<path fill-rule="evenodd" clip-rule="evenodd" d="M95.1363 342.345C85.8357 333.08 82.524 334.101 75.3947 321.489C102.421 334.113 127.488 355.06 177.077 344.237C209.161 337.237 245.242 305.576 246.97 286.92C246.471 295.256 241.092 305.872 236.58 313.474C230.544 323.637 222.883 328.949 218.837 336.527C245.915 334.876 260.94 319.456 266.529 294.694C285.563 210.383 179.177 131.814 162.59 130.046C161.491 139.508 172.374 153.008 176.24 161.366C164.271 155.894 160.453 136.396 150.029 130.862C137.313 124.114 134.778 135.309 118.961 148.976C114.814 152.556 112.814 152.945 109.875 155.541C113.078 149.718 125.351 137.613 126.065 129.891C104.975 128.552 70.1993 159.697 62.2123 168.505C46.8993 185.394 31.6714 204.351 19.8242 229.879C-8.22208 290.315 26.2594 353.335 95.1372 342.346L95.1363 342.345Z" fill="#FA8A32" stroke="#FA8A32" stroke-width="0.666688" stroke-miterlimit="2.61313"/>
<path fill-rule="evenodd" clip-rule="evenodd" d="M132.242 89.7155L132.669 61.098C136.495 72.1773 137.784 91.5813 147.945 96.2868C163.37 103.426 170.098 86.4378 175.941 76.6635C184.43 62.456 216.782 22.1077 190.231 10.7721C162.093 -1.2434 153.181 28.227 121.109 37.4651C105.895 41.8473 97.5789 47.4853 104.316 65.31C112.442 86.8161 118.172 91.3855 132.241 89.7155H132.242Z" fill="#FA8A32" stroke="#FA8A32" stroke-width="0.666688" stroke-miterlimit="2.61313"/>
<path fill-rule="evenodd" clip-rule="evenodd" d="M179.052 93.9198C188.004 92.3197 211.356 79.3283 218.154 73.8473C233.696 61.323 223.544 46.4214 204.881 43.3433C200.847 51.7795 196.972 58.4321 191.48 66.7549C186.022 75.0237 178.125 82.3364 179.053 93.9198H179.052Z" fill="#FA8A32" stroke="#FA8A32" stroke-width="0.666688" stroke-miterlimit="2.61313"/>
<path fill-rule="evenodd" clip-rule="evenodd" d="M102.358 125.795C102.934 125.925 103.707 126.205 106.086 125.784C114.013 124.378 121.33 118.289 140.276 116.826C162.224 115.126 165.598 120.502 182.271 126.335C180.476 107.029 157.874 104.96 140.308 105.504C126.267 105.939 95.9153 109.502 102.358 125.796V125.795Z" fill="#FA8A32" stroke="#FA8A32" stroke-width="0.666688" stroke-miterlimit="2.61313"/>
<path d="M120.463 258.688H95.1172V254.78H98.2002C99.3952 254.78 100.315 254.482 100.961 253.884C101.63 253.287 101.964 252.128 101.964 250.407V214.629C101.964 212.884 101.63 211.701 100.961 211.08C100.315 210.458 99.3952 210.148 98.2002 210.148H95.1172V206.276H118.778C125.709 206.276 130.787 207.435 134.014 209.753C137.264 212.072 138.889 215.442 138.889 219.863C138.889 221.799 138.603 223.52 138.029 225.025C137.455 226.531 136.703 227.845 135.77 228.969C134.815 230.092 133.739 231.048 132.544 231.837C131.349 232.601 130.13 233.235 128.887 233.737L137.635 248.794C138.758 250.682 139.893 252.151 141.04 253.203C142.188 254.255 143.502 254.78 144.984 254.78H145.271V258.688H142.869C140.67 258.688 138.746 258.604 137.097 258.437C135.472 258.27 134.05 257.935 132.831 257.433C131.588 256.955 130.513 256.286 129.604 255.426C128.72 254.565 127.896 253.454 127.131 252.092L118.419 235.924H113.544V250.407C113.544 252.128 113.866 253.287 114.512 253.884C115.181 254.482 116.113 254.78 117.308 254.78H120.463V258.688ZM117.523 210.614H113.544V231.657H117.666C120.941 231.657 123.271 230.749 124.657 228.933C125.35 228.025 125.84 226.901 126.127 225.563C126.414 224.225 126.557 222.659 126.557 220.867C126.557 217.186 125.864 214.545 124.478 212.944C123.116 211.391 120.797 210.614 117.523 210.614ZM145.952 276.326V272.418H146.812C148.151 272.418 149.357 272.096 150.433 271.45C151.508 270.805 152.046 269.538 152.046 267.65V228.359C152.046 226.304 151.616 224.942 150.756 224.272C149.919 223.579 148.7 223.233 147.099 223.233H146.597V219.325H160.973L162.299 225.061H162.622C163.745 223.054 165.227 221.476 167.067 220.329C168.907 219.182 171.166 218.608 173.843 218.608C176.28 218.608 178.431 219.003 180.296 219.791C182.184 220.58 183.761 221.823 185.028 223.52C187.609 226.937 188.899 232.147 188.899 239.15C188.899 246.129 187.633 251.303 185.099 254.673C182.638 257.947 178.981 259.584 174.129 259.584C171.333 259.584 169.063 259.058 167.318 258.007C165.573 256.931 164.175 255.497 163.124 253.705H162.622C162.67 254.255 162.717 254.804 162.765 255.354C162.813 255.904 162.861 256.453 162.909 257.003C162.98 257.911 163.04 258.879 163.088 259.907C163.16 260.935 163.195 261.831 163.195 262.596V267.65C163.195 269.538 163.733 270.805 164.809 271.45C165.884 272.096 167.079 272.418 168.394 272.418H170.007V276.326H145.952ZM170.688 254.135C173.15 254.135 174.918 252.892 175.994 250.407C177.045 247.897 177.571 244.169 177.571 239.222C177.571 234.394 177.045 230.654 175.994 228.001C174.918 225.396 173.173 224.093 170.76 224.093C167.939 224.093 165.944 225.384 164.773 227.965C164.199 229.256 163.793 230.845 163.554 232.733C163.315 234.597 163.195 236.736 163.195 239.15C163.195 241.683 163.315 243.894 163.554 245.782C163.793 247.646 164.199 249.2 164.773 250.443C165.92 252.904 167.892 254.135 170.688 254.135Z" fill="white"/>
<path fill-rule="evenodd" clip-rule="evenodd" d="M248.044 352.66L299.731 298.313L276.268 298.185L274.161 145.636H218.66L218.471 298.39H194.453L248.044 352.66Z" fill="#FA8A32" stroke="white" stroke-width="6.66688" stroke-miterlimit="2.61313"/>
<path d="M247.093 185.842C281.762 185.842 309.867 157.737 309.867 123.068C309.867 88.3981 281.762 60.293 247.093 60.293C212.423 60.293 184.318 88.3981 184.318 123.068C184.318 157.737 212.423 185.842 247.093 185.842Z" fill="#FA8A32" stroke="white" stroke-width="6.66688" stroke-miterlimit="2.61313"/>
<path d="M241.631 112.606C241.631 117.61 240.635 121.534 238.643 124.379C237.648 125.802 236.403 126.905 234.909 127.687C233.415 128.47 231.672 128.861 229.68 128.861C227.594 128.861 225.791 128.47 224.274 127.687C222.78 126.905 221.547 125.802 220.575 124.379C219.603 122.957 218.879 121.249 218.405 119.258C217.955 117.266 217.729 115.049 217.729 112.606C217.729 110.164 217.955 107.959 218.405 105.991C218.879 103.999 219.603 102.292 220.575 100.869C221.547 99.4698 222.792 98.3909 224.309 97.6321C225.827 96.8733 227.641 96.4939 229.751 96.4939C231.743 96.4939 233.474 96.8733 234.944 97.6321C236.438 98.3909 237.683 99.4698 238.679 100.869C240.647 103.738 241.631 107.65 241.631 112.606ZM257.566 97.2408H262.332L236.367 149.242H231.565L257.566 97.2408ZM224.274 112.606C224.274 114.693 224.369 116.566 224.558 118.226C224.748 119.862 225.056 121.249 225.483 122.388C226.361 124.711 227.76 125.873 229.68 125.873C231.601 125.873 233 124.711 233.877 122.388C234.28 121.249 234.565 119.862 234.731 118.226C234.921 116.566 235.016 114.693 235.016 112.606C235.016 110.543 234.921 108.706 234.731 107.093C234.565 105.481 234.28 104.106 233.877 102.967C233 100.691 231.625 99.5528 229.751 99.5528C227.807 99.5528 226.396 100.691 225.519 102.967C225.068 104.106 224.748 105.481 224.558 107.093C224.369 108.706 224.274 110.543 224.274 112.606ZM276.453 133.734C276.453 138.737 275.457 142.662 273.465 145.507C272.469 146.93 271.224 148.032 269.73 148.815C268.236 149.574 266.493 149.953 264.502 149.953C262.415 149.953 260.613 149.574 259.095 148.815C257.601 148.032 256.368 146.93 255.396 145.507C254.448 144.084 253.736 142.377 253.262 140.385C252.788 138.393 252.551 136.176 252.551 133.734C252.551 131.292 252.776 129.086 253.226 127.118C253.701 125.126 254.424 123.419 255.396 121.996C256.368 120.597 257.613 119.518 259.131 118.76C260.648 118.001 262.462 117.621 264.573 117.621C266.565 117.621 268.296 118.001 269.766 118.76C271.26 119.518 272.505 120.597 273.5 121.996C275.469 124.866 276.453 128.778 276.453 133.734ZM259.095 133.734C259.095 135.821 259.19 137.694 259.38 139.354C259.57 140.99 259.878 142.377 260.305 143.515C261.182 145.839 262.581 147.001 264.502 147.001C266.446 147.001 267.833 145.839 268.663 143.515C269.066 142.377 269.351 140.99 269.517 139.354C269.706 137.694 269.801 135.821 269.801 133.734C269.801 131.671 269.706 129.833 269.517 128.221C269.351 126.608 269.066 125.233 268.663 124.095C267.833 121.819 266.47 120.68 264.573 120.68C262.628 120.68 261.218 121.819 260.34 124.095C259.89 125.233 259.57 126.608 259.38 128.221C259.19 129.833 259.095 131.671 259.095 133.734Z" fill="white"/>
</svg>
