<svg width="672" height="370" viewBox="0 0 672 370" fill="none" xmlns="http://www.w3.org/2000/svg">
<path fill-rule="evenodd" clip-rule="evenodd" d="M599.123 168.883C599.123 216.3 542.825 231.796 542.825 302.045C542.825 323.762 553.304 347.943 567.568 369.346H564.398L560.351 363.556C539.838 331.897 533.001 294.801 547.134 258.727C553.277 243.061 572.781 219.719 582.88 204.616C601.062 177.436 600.341 156.02 577.746 130.713C569.585 121.583 569.756 122.867 563.115 116.108C558.635 111.55 552.308 106.677 546.951 103.049C523.478 87.1337 495.8 71.8475 459.032 84.0162C451.343 86.5574 444.938 89.0985 438.677 92.8971C421.766 103.153 401.319 118.086 384.775 126.679C371.467 133.595 359.259 138.965 342.754 143.131C326.42 147.257 308.527 147.336 291.028 149.864C263.533 153.846 244.173 152.169 215.16 160.605C200.738 164.796 186.814 170.546 174.711 178.615C169.183 182.309 162.87 186.448 157.722 190.863C138.637 207.197 98.5678 244.515 83.6222 262.919C78.9852 268.63 75.5926 273.673 71.0998 279.62C54.5954 301.495 40.488 338.014 40.488 365.927C40.488 367.08 40.5011 368.22 40.5011 369.359H37.0562C37.7242 340.843 45.0988 311.03 68.1787 277.786C87.9447 249.309 115.033 225.967 139.776 202.154C155.194 187.313 172.039 174.581 192.014 165.621C205.964 159.36 221.342 154.998 237.035 152.182C253.906 149.143 273.619 148.121 290.713 146.327C308.475 144.454 325.7 143.877 342.519 139.673C357.595 135.9 373.026 129.783 384.945 122.553L420.666 99.8133C472.943 66.2543 507.104 69.2015 557.351 106.703C565.656 112.899 573.724 119.867 580.235 128.198C589.037 139.463 599.097 153.02 599.097 168.883H599.123Z" fill="white"/>
<path fill-rule="evenodd" clip-rule="evenodd" d="M519.011 181.877C519.011 170.154 515.632 160.958 507.563 155.431C479.872 136.464 453.491 151.056 421.701 162.517C406.152 168.123 381.278 177.371 361.996 178.589L289.495 181.877C266.873 183.095 244.265 182.047 222.665 190.836C205.715 197.726 194.83 204.014 181.47 215.685C142.134 250.017 80.5439 296.622 80.5439 352.933C80.5439 358.736 80.7011 364.172 81.0286 369.359H77.3609C77.3216 368.206 77.2954 367.054 77.2954 365.927C77.2954 337.542 81.0024 319.139 96.9828 294.67L113.815 273.607L173.807 217.754C181.221 211.768 186.879 206.633 195.092 201.145C203.2 195.722 210.693 191.504 220.871 187.955C231.703 184.182 238.672 182.466 251.404 180.606C267.528 178.249 340.357 176.664 360.909 175.354C379.287 174.188 404.384 165.32 421.412 158.98C449.968 148.344 482.662 132.521 509.921 153.073C516.824 158.273 522.26 167.154 522.26 178.628C522.26 209.109 488.701 239.551 488.701 287.977C488.701 314.541 490.639 329.631 500.149 354.479C502.192 359.823 504.236 364.709 506.397 369.359H503.188L497.189 356.352C480.435 314.947 481.496 272.337 499.193 231.377C505.598 216.562 518.998 194.674 518.998 181.89L519.011 181.877Z" fill="white"/>
<path fill-rule="evenodd" clip-rule="evenodd" d="M671.664 171.057C671.664 178.065 667.695 186.619 664.826 192.369C657.137 207.812 623.775 235.555 609.799 254.26C581.27 292.469 588.775 326.526 617.854 361.277C620.828 364.827 623.474 366.831 626.513 369.346H623.238C617.278 363.871 611.881 357.78 607.336 351.204C581.387 313.637 584.453 274.642 617.252 242.223C620.422 239.092 622.937 236.996 625.727 233.381C644.982 208.454 691.364 183.409 658.067 139.162C652.553 131.827 644.392 124.845 637.817 118.269L616.702 98.2414C608.253 89.7927 599.071 81.6191 591.696 72.3714C584.112 62.8617 573.672 55.5657 565.865 46.2263C550.265 27.5606 530.8 2.16215 503.843 2.16215C480.999 2.16215 462.281 11.0824 443.222 20.5659C425.46 29.4075 410.973 40.3712 397.481 53.8629C368.061 83.2826 345.977 105.485 302.489 116.933C251.522 130.359 232.489 121.072 173.178 145.685C155.587 152.981 140.012 165.097 126.822 178.366L78.0946 228.168C74.2698 231.94 72.58 234.743 68.8862 238.45C50.9147 256.527 32.2752 288.186 21.3509 309.996C12.6009 327.469 5.81575 346.79 2.17431 369.359H-0.0131836C1.72895 358.029 4.2832 348.323 7.59718 338.446C30.5986 269.887 74.5317 228.482 125.198 177.816C139.069 163.945 152.928 153.243 170.742 144.336C189.827 134.787 211.021 130.818 232.018 126.587C254.26 122.094 278.872 120.732 300.76 115.217C331.568 107.45 349.186 95.4907 370.419 76.6154L396.394 51.7016C409.886 38.1837 425.722 28.006 442.187 18.457C455.155 10.9383 485.177 0.000854492 504.93 0.000854492C521.421 0.000854492 541.449 14.1213 551.64 26.9057C553.762 29.5647 554.024 30.2065 556.605 32.7608L582.055 59.2726C596.831 76.0521 613.388 91.4955 629.159 107.45C633.245 111.576 636.455 113.593 640.541 117.719C653.81 131.145 671.664 145.017 671.664 171.044V171.057Z" fill="white"/>
<path fill-rule="evenodd" clip-rule="evenodd" d="M619.701 167.809C619.701 183.815 614.2 193.967 605.948 204.931C599.176 213.916 592.993 221.88 586.299 230.748C583.012 235.097 579.96 239.315 576.829 244.017C562.368 265.787 557.993 275.494 557.993 304.219C557.993 325.937 569.324 349.593 583.889 369.359H581.505C579.737 366.818 578.047 364.224 576.449 361.552C563.678 340.28 555.832 325.033 555.832 295.561C555.832 279.305 559.303 270.189 564.844 259.094C569.861 249.034 576.842 240.127 583.352 231.05C586.81 226.242 589.653 222.85 593.268 218.226C621.732 181.785 627.757 165.988 598.534 128.355C589.286 116.449 565.027 95.4514 552.767 86.4394C547.056 82.2478 541.266 78.6457 535.083 74.8994C480.632 41.8644 446.798 63.1499 401.031 97.4424C355.041 131.892 336.834 136.516 272.297 141.926C229.058 145.541 191.962 152.496 159.752 176.624L96.0006 235.215L72.9862 260.915C49.5656 290.963 32.7861 325.662 27.8086 364.054L27.7562 369.359H26.001C27.4942 344.262 32.2098 325.963 46.2647 298.063C55.2636 280.209 67.3013 262.788 80.8192 248.17C94.4157 233.473 108.811 220.243 123.05 205.965C135.402 193.574 148.644 182.309 162.673 171.961C219.024 130.36 289.652 149.51 356.325 123.103C387.487 110.764 416.278 78.5147 444.322 66.0316C467.717 55.6181 490.731 52.2386 515.003 62.4687C529.11 68.4156 540.755 74.978 552.898 84.121C558.347 88.234 588.487 113.449 592.81 118.898C603.249 132.062 619.701 146.825 619.701 167.796V167.809Z" fill="white"/>
<path fill-rule="evenodd" clip-rule="evenodd" d="M569.9 171.057C569.9 200.398 538.843 229.792 528.586 257.496C515.828 291.919 522.705 326.814 538.843 359.103C540.493 362.391 542.484 365.927 544.58 369.359H542.445C541.777 368.298 541.122 367.224 540.467 366.137C533.511 354.649 520.111 321.693 520.111 304.219C520.111 259.552 528.508 249.833 548.719 216.981C564.176 191.858 577.183 172.354 559.041 144.035C554.037 136.241 548.156 131.276 540.938 125.33C512.96 102.302 486.5 99.4726 452.561 111.078C446.497 113.148 443.785 115.584 438.192 118.361C424.058 125.356 410.003 134.315 395.608 140.734C385.967 145.03 374.545 149.575 364.014 152.444C336.493 159.923 305.607 160.997 276.54 162.399L246.963 165.307C217.884 169.616 191.674 178.615 170.152 197.844C162.45 204.734 154.159 210.537 146.902 217.898L124.15 238.45C106.034 256.618 86.8707 273.516 74.7805 297.342C69.672 307.402 65.5197 316.165 61.7473 327.613C57.333 340.987 55.8136 355.095 56.1803 369.359H54.6216C54.9752 337.411 58.8787 319.466 76.0249 291.002C87.1719 272.507 117.731 239.079 136.711 223.937C162.791 203.136 177.645 183.043 213.313 170.625C224.08 166.866 235.463 165.019 248.051 163.132C269.611 159.897 304.546 159.295 327.521 157.081C341.314 155.745 352.042 153.518 364.014 150.27C385.234 144.506 404.253 134.472 423.417 124.151C428.538 121.387 431.996 119.291 437.485 116.566C453.007 108.878 468.096 101.765 487.64 101.765C521.945 101.765 569.913 134.826 569.913 171.057H569.9Z" fill="white"/>
<path fill-rule="evenodd" clip-rule="evenodd" d="M546.073 176.467C546.073 143.065 512.868 123.417 483.278 123.417C447.374 123.417 404.476 163.525 338.144 168.83C327.887 169.643 318.352 170.009 307.886 169.97L248.339 174.293C215.579 179.912 197.201 187.941 171.318 208.782C168.109 211.362 166.223 214.021 163.079 216.785C159.621 219.824 157.853 220.911 154.421 224.369C130.358 248.641 102.707 267.739 85.194 299.137C71.7678 323.199 67.1046 346.384 67.9561 369.359H66.4497C66.489 337.031 69.0433 320.671 86.7921 292.09C100.113 270.66 117.417 256.815 134.904 239.511L166.969 209.869C204.471 179.86 237.336 168.582 289.469 168.896L346.854 165.647C370.877 163.015 388.783 155.994 409.794 147.401C415.086 145.24 419.015 142.869 423.862 140.904C442.174 133.49 461.612 121.269 486.5 121.269C505.467 121.269 532.057 134.302 541.515 151.789C544.396 157.12 548.208 166.735 548.208 174.319C548.208 204.459 505.991 238.07 505.991 289.077C505.991 309.013 506.148 317.344 512.619 336.573C514.4 341.878 516.051 346.986 518.343 352.501C520.74 358.238 523.465 363.871 526.477 369.372H524.133L523.373 368.062C518.736 360.085 513.824 346.554 510.746 337.385C482.505 253.37 546.06 207.249 546.06 176.48L546.073 176.467Z" fill="white"/>
<path fill-rule="evenodd" clip-rule="evenodd" d="M484.365 199.206C484.365 184.012 473.781 175.393 465.962 175.393C449.13 175.393 423.482 182.283 406.873 185.597C377.964 191.36 370.904 190.548 342.545 190.548C250.265 190.548 230.8 185.361 177.161 233.027L149.575 257.404C138.807 266.888 115.151 291.277 108.34 302.791C93.6561 327.6 89.6872 346.96 91.914 369.372H90.198C88.9536 350.929 91.2066 332.578 98.5681 316.846C103.493 306.315 108.733 297.106 116.513 288.239C128.276 274.812 143.327 260.469 156.582 248.196C159.7 245.314 161.534 244.449 164.717 241.175C168.083 237.73 170.14 236.643 173.388 233.604C230.525 180.135 264.175 188.4 352.278 188.4C363.503 188.4 372.882 188.177 382.627 187.352C405 185.453 446.405 173.245 464.874 173.245C475.471 173.245 486.527 185.112 486.527 195.984C486.527 209.581 478.471 231.141 474.489 244.567C462.648 284.505 466.001 330.403 477.829 369.385H475.576C468.411 345.362 464.874 317.383 464.874 296.674C464.874 279.777 468.084 258.989 472.066 245.406C474.384 237.507 476.506 230.146 478.811 222.928C480.632 217.23 484.365 205.769 484.365 199.246V199.206Z" fill="white"/>
<path fill-rule="evenodd" clip-rule="evenodd" d="M393.434 294.474C393.434 273.031 393.643 254.771 373.222 242.144C356.915 232.058 326.683 223.57 306.537 220.06C299.398 218.815 286.522 217.099 279.318 218.226C261.202 221.029 255.386 217.322 231.049 229.517C205.244 242.458 199.834 250.58 180.422 267.674C177.161 270.542 175.549 271.407 172.314 274.721C162.097 285.147 161.193 283.025 146.287 300.656C129.416 320.606 120.626 333.403 120.626 363.766C120.626 365.6 120.692 367.473 120.836 369.359H117.522C117.43 367.826 117.378 366.32 117.378 364.84C117.378 336.494 124.006 322.256 140.366 302.293C146.667 294.591 152.365 289.273 159.333 282.292L189.159 254.732C208.611 238.463 224.683 225.155 250.54 218.684C268.564 214.178 285.88 213.143 304.847 216.34C311.514 217.466 316.007 218.815 322.412 220.426C344.431 225.967 368.599 230.932 384.527 247.082C391.037 253.671 396.682 266.573 396.682 279.318C396.682 320.488 393.984 327.338 381.658 367.145L380.977 369.359H377.44C385.208 345.061 393.434 316.925 393.434 294.474Z" fill="white"/>
<path fill-rule="evenodd" clip-rule="evenodd" d="M431.315 266.324C431.315 223.413 424.019 220.61 378.593 214.034C364.315 211.965 348.977 210.511 333.402 208.336C283.64 201.407 241.685 201.211 201.773 231.665C193.062 238.319 181.889 249.938 174.095 255.963C170.113 259.041 167.887 261.779 163.734 265.093C154.618 272.363 133.136 295.521 124.451 307.009C110.056 326.068 105.916 347.589 107.842 369.372H105.772C104.004 346.829 108.51 324.378 123.351 304.835C133.253 291.788 144.361 280.51 156.019 269.298C159.254 266.18 161.376 265.145 164.704 261.74C171.305 254.981 201.053 229.242 210.431 223.02C253.041 194.74 303.21 202.586 353.548 208.755C364.158 210.052 372.698 211.087 383.361 212.515C398.398 214.519 422.88 217.938 429.521 233.473C432.023 239.328 433.477 255.832 433.477 264.163C433.477 292.718 430.32 335.355 421.177 362.286C420.352 364.722 419.5 367.067 418.636 369.359H416.278C419.71 361.081 422.696 352.711 424.569 344.026C428.145 327.417 431.315 283.078 431.315 266.324Z" fill="white"/>
<path fill-rule="evenodd" clip-rule="evenodd" d="M272.179 261.989C253.5 261.989 241.619 267.241 228.809 274.917C222.81 278.506 218.094 281.938 212.632 285.802C192.198 300.211 170.742 318.405 159.569 341C154.722 350.798 152.954 360.085 153.203 369.346H149.954C149.47 347.537 159.124 329.133 178.261 309.891L200.254 290.74C203.292 288.461 205.559 286.785 208.309 284.728C232.83 266.272 267.751 246.244 297.42 268.158C304.244 273.201 308.842 278.441 312.981 286.156C318.719 296.831 323.067 326.631 323.067 343.201C323.067 351.453 322.268 360.386 320.893 369.359H317.212C320.186 345.729 319.334 321.313 314.422 300.957C312.981 295.011 312.182 291.579 309.366 286.536C301.952 273.254 286.64 262.002 272.192 262.002L272.179 261.989Z" fill="white"/>
<path fill-rule="evenodd" clip-rule="evenodd" d="M280.837 232.765C250.959 232.765 224.591 243.768 205.336 263.351L170.153 294.212C143.719 317.488 132.179 342.074 133.437 369.359H131.603C131.498 367.499 131.446 365.626 131.446 363.766C131.446 335.761 148.016 309.301 167.795 294.015L199.389 266.062C222.22 244.829 243.846 230.591 279.763 230.591C302.149 230.591 331.215 244.017 342.846 255.204C351.321 263.338 355.198 270.568 358.146 284.283C363.464 308.987 359.338 339.638 352.631 369.346H350.614C351.596 364.945 352.474 360.504 353.221 356.025C357.203 332.001 360.883 311.738 356.495 287.007C355.107 279.2 353.352 273.529 350.155 267.359C340.593 248.877 302.673 232.752 280.837 232.752V232.765Z" fill="white"/>
<path fill-rule="evenodd" clip-rule="evenodd" d="M293.831 364.84C293.831 328.098 284.217 278.939 234.271 298.783C207.759 309.314 170.415 336.783 170.415 369.163V369.346H168.267C168.253 368.927 168.253 368.508 168.253 368.075C168.253 329.945 226.634 292.286 251.614 292.286C268.747 292.286 278.296 296.556 287.36 314.999C291.919 324.26 295.992 344.393 295.992 358.33C295.992 362.089 295.848 365.757 295.56 369.333H293.674C293.779 367.813 293.831 366.307 293.831 364.827V364.84Z" fill="white"/>
<path fill-rule="evenodd" clip-rule="evenodd" d="M262.42 369.359C261.831 325.334 218.277 327.155 200.751 357.295C198.472 361.225 197.084 365.298 196.481 369.359H192.748C193.783 361.565 197.581 353.431 205.284 345.598C220.19 330.43 248.038 326.5 258.36 342.926C261.634 348.139 265.669 358.959 265.669 367.014C265.669 367.8 265.656 368.586 265.629 369.359H262.407H262.42Z" fill="white"/>
</svg>
