<svg width="578" height="223" viewBox="0 0 578 223" fill="none" xmlns="http://www.w3.org/2000/svg">
<path fill-rule="evenodd" clip-rule="evenodd" d="M505.046 53.322C505.046 31.6437 493.263 16.6197 480.491 0.00146484H476.176C480.872 6.39577 485.378 12.4782 488.809 17.5901C506.987 44.7789 506.276 66.1799 483.68 91.4972C475.518 100.629 475.691 99.3471 469.054 106.105C464.566 110.663 458.241 115.532 452.887 119.171C429.406 135.079 401.732 150.38 364.978 138.198C357.284 135.651 350.872 133.121 344.617 129.326C327.704 119.067 307.256 104.147 290.707 95.5348C277.398 88.6206 265.182 83.2487 248.685 79.0898C232.344 74.9656 214.443 74.8962 196.959 72.3489C169.475 68.3633 150.102 70.0442 121.093 61.6051C106.676 57.4116 92.7435 51.6584 80.648 43.5832C75.1202 39.8922 68.8125 35.7506 63.6659 31.3491C55.0362 23.9671 42.1089 12.2875 29.1644 0.00146484H24.5723C31.6597 6.72501 38.7992 13.3792 45.7306 20.0508C61.1532 34.8842 77.9967 47.6382 97.9768 56.5798C111.926 62.8355 127.314 67.2023 142.997 70.0269C159.875 73.0594 179.578 74.0818 196.681 75.884C214.443 77.7555 231.668 78.3273 248.494 82.5382C263.57 86.3159 279.01 92.4329 290.932 99.659L326.664 122.394C378.945 155.96 413.1 152.997 463.353 115.497C471.654 109.294 479.729 102.328 486.244 93.9925C495.047 82.7288 505.098 69.1778 505.098 53.3046L505.046 53.322Z" fill="white"/>
<path fill-rule="evenodd" clip-rule="evenodd" d="M424.935 40.3254C424.935 52.0396 421.556 61.2412 413.481 66.7691C385.79 85.7267 359.415 71.1532 327.617 59.6816C312.073 54.0844 287.207 44.8309 267.902 43.6005L195.399 40.3081C172.785 39.0951 150.171 40.1348 128.562 31.3491C111.615 24.4523 100.732 18.1793 87.3717 6.49973C84.9284 4.3683 82.4157 2.2022 79.8164 -0.0332031H74.9297L79.7124 4.42028C87.1291 10.3987 92.7956 15.5453 100.992 21.0385C109.102 26.4624 116.588 30.6733 126.777 34.2257C137.608 38.0034 144.574 39.7189 157.31 41.5731C173.426 43.9298 246.276 45.524 266.811 46.8237C285.179 47.9847 310.289 56.857 327.305 63.1993C355.863 73.8219 388.562 89.6603 415.821 69.1084C422.717 63.9098 428.159 55.0375 428.159 43.5486C428.159 29.5989 421.123 15.6493 413.498 -0.0332031H409.409C416.15 13.6565 424.918 29.9628 424.918 40.2908L424.935 40.3254Z" fill="white"/>
<path fill-rule="evenodd" clip-rule="evenodd" d="M577.584 51.1559C577.584 44.1551 573.616 35.5947 570.739 29.8415C566.875 22.0956 556.547 11.2478 545.457 0.00146484H541.679C562.924 21.6104 592.348 45.3681 563.998 83.0407C558.488 90.3708 550.326 97.3716 543.759 103.939L522.652 123.971C514.196 132.41 505.029 140.589 497.647 149.843C490.057 159.356 479.625 166.652 471.827 175.992C456.214 194.655 436.754 220.059 409.79 220.059C386.933 220.059 368.236 211.135 349.157 201.656C331.395 192.818 316.908 181.849 303.409 168.367C273.985 138.943 251.908 116.745 208.413 105.291C157.449 91.8611 138.405 101.149 79.0886 76.5425C61.4999 69.2471 45.9214 57.117 32.7342 43.8605L-0.0170898 10.3814V13.1193C9.96426 23.3606 20.3962 33.6712 31.1053 44.3977C44.9683 58.2607 58.8313 68.9698 76.6452 77.8768C95.7415 87.4249 116.935 91.3932 137.92 95.6214C160.152 100.11 184.777 101.479 206.663 106.989C237.473 114.77 255.097 126.726 276.324 145.597L302.3 170.516C315.799 184.033 331.637 194.205 348.082 203.753C361.044 211.273 391.075 222.208 410.83 222.208C427.309 222.208 447.341 208.085 457.548 195.296C459.662 192.645 459.922 192.004 462.521 189.439L487.977 162.926C502.759 146.152 519.308 130.695 535.077 114.752C539.166 110.628 542.372 108.601 546.462 104.476C559.736 91.0466 577.584 77.1836 577.584 51.1559Z" fill="white"/>
<path fill-rule="evenodd" clip-rule="evenodd" d="M525.633 54.3964C525.633 38.3846 520.14 28.23 511.874 17.2782C507.334 11.2478 503.053 5.68528 498.721 0.00145959H496.053C497.058 1.26646 498.08 2.56611 499.189 3.96974C527.66 40.4121 533.691 56.1985 504.457 93.8366C495.204 105.741 470.943 126.744 458.692 135.755C452.973 139.948 447.186 143.553 440.999 147.296C386.535 180.342 352.727 159.045 306.944 124.751C260.954 90.3015 242.741 85.6747 178.209 80.2682C134.974 76.6464 97.873 69.6976 65.6589 45.576L16.0468 -0.0158691H12.4424C17.9356 5.33871 23.4635 10.6933 28.974 16.2212C41.3294 28.6112 54.5685 39.8749 68.5875 50.2201C124.941 91.8264 195.572 72.6608 262.236 99.0698C293.393 111.408 322.193 143.657 350.249 156.133C373.643 166.548 396.655 169.927 420.933 159.703C435.038 153.759 446.683 147.192 458.831 138.042C464.289 133.935 494.424 108.722 498.756 103.263C509.205 90.1109 525.65 75.3295 525.65 54.3617L525.633 54.3964Z" fill="white"/>
<path fill-rule="evenodd" clip-rule="evenodd" d="M475.83 51.1559C475.83 34.0004 465.225 16.845 454.36 0.00145959H451.414C452.454 1.68235 453.528 3.41522 454.654 5.23474C470.112 30.3614 483.125 49.8736 464.965 78.1714C459.974 85.9693 454.083 90.9426 446.856 96.8864C418.871 119.916 392.41 122.741 358.48 111.131C352.415 109.051 349.712 106.625 344.097 103.853C329.957 96.8517 315.903 87.8928 301.503 81.4812C291.868 77.1836 280.449 72.6435 269.913 69.7669C242.395 62.2982 211.498 61.2065 182.437 59.8029L152.874 56.8917C123.797 52.5768 97.5958 43.5832 76.0735 24.3483C68.3622 17.4688 60.0791 11.6637 52.8184 4.29899L48.0356 -0.0158691H44.7778C69.5406 20.1721 84.5646 39.4936 119.222 51.5718C130.001 55.3321 141.368 57.1689 153.966 59.0578C175.523 62.2809 210.458 62.8874 233.436 65.1228C247.229 66.4572 257.956 68.6752 269.93 71.933C291.14 77.7035 310.167 87.7368 329.333 98.0648C334.462 100.82 337.911 102.934 343.404 105.655C358.913 113.349 374.006 120.453 393.571 120.453C427.881 120.453 475.847 87.3903 475.847 51.1732L475.83 51.1559Z" fill="white"/>
<path fill-rule="evenodd" clip-rule="evenodd" d="M452.003 45.7493C452.003 79.1591 418.801 98.7926 389.204 98.7926C353.299 98.7926 310.41 58.6765 244.076 53.374C233.817 52.5595 224.286 52.1956 213.82 52.2303L154.278 47.8981C121.51 42.2836 103.141 34.243 77.252 13.4139C74.0462 10.8319 72.1573 8.16329 69.0208 5.40802C66.4042 3.1033 64.7579 1.92494 62.6265 -0.0158744H59.5767L72.9198 12.3222C110.419 42.3355 143.292 53.6166 195.417 53.3046L252.792 56.5451C276.81 59.1791 294.728 66.1972 315.73 74.7923C321.015 76.9584 324.949 79.3324 329.801 81.2905C348.117 88.7072 367.543 100.924 392.444 100.924C411.419 100.924 438.002 87.8928 447.463 70.4081C450.34 65.0882 454.169 55.4707 454.169 47.8807C454.169 33.2553 444.24 17.8154 433.999 -0.0332031H431.434C441.831 18.6298 452.003 33.3939 452.003 45.7147V45.7493Z" fill="white"/>
<path fill-rule="evenodd" clip-rule="evenodd" d="M390.295 23.014C390.295 38.2113 379.708 46.8237 371.892 46.8237C355.066 46.8237 329.402 39.9269 312.801 36.6171C283.897 30.8639 276.827 31.6611 248.477 31.6611C163.861 31.6611 140.467 36.0106 95.8109 0.00146484H92.2412C142.009 40.8626 176.944 33.8272 258.216 33.8272C269.445 33.8272 278.82 34.0524 288.558 34.8842C310.93 36.773 352.328 48.9898 370.801 48.9898C381.388 48.9898 392.462 37.1196 392.462 26.2545C392.462 18.9591 390.139 9.39364 387.384 0.00146484H384.958C386.847 5.89323 390.295 16.7237 390.295 23.014Z" fill="white"/>
<path fill-rule="evenodd" clip-rule="evenodd" d="M223.195 0.00145959C219.417 0.850568 215.795 1.56105 212.451 2.15022C205.311 3.39789 192.436 5.11344 185.227 3.98707C172.577 2.02892 165.923 3.24193 154.763 0.00145959H144.973C148.594 1.33577 152.389 2.51413 156.444 3.51919C174.466 8.02466 191.795 9.06439 210.753 5.85857C217.424 4.7322 221.912 3.38056 228.324 1.76899C230.698 1.17981 233.089 0.590636 235.481 -0.0158691H223.177L223.195 0.00145959Z" fill="white"/>
<path fill-rule="evenodd" clip-rule="evenodd" d="M321.275 0.00146484C313.338 3.7618 301.641 5.70262 284.521 8.18063C270.242 10.2427 254.906 11.7157 239.327 13.8818C195.382 19.9988 157.518 20.8653 121.787 0.0187936H117.61C159.944 27.3289 209.643 19.5829 259.498 13.4832C270.103 12.1836 278.646 11.1438 289.303 9.72288C299.683 8.33659 314.586 6.27447 324.983 0.0187936H321.275V0.00146484Z" fill="white"/>
</svg>
