<svg width="877" height="750" viewBox="0 0 877 750" fill="none" xmlns="http://www.w3.org/2000/svg">
<path fill-rule="evenodd" clip-rule="evenodd" d="M153.38 168.89C153.38 216.299 209.679 231.807 209.679 302.057C209.679 342.716 172.935 391.993 143.475 415.576L110.993 443.721C64.5231 480.822 86.472 529.414 104.506 573.95C108.994 585.037 115.978 595.917 123.038 605.211C128.154 611.943 135.13 619.162 141.898 624.241C144.63 626.297 146.761 627.527 149.671 629.451C168.541 641.918 200.882 649.804 227.619 643.702C234.895 642.04 240.715 641.008 248.197 639.383C280.069 632.446 283.167 626.841 323.348 626.841C344.414 626.841 424.033 644.566 442.743 653.606C473.498 668.458 465.987 694.669 451.455 719.218C447.859 725.292 431.534 745.439 430.529 749.184C436.575 749.053 435.336 747.898 438.284 743.955C440.274 741.299 441.701 739.045 443.682 736.361C456.74 718.693 479.581 685.253 460.543 662.881C448.113 648.274 427.976 644.068 409.106 639.618C396.329 636.605 382.98 633.413 369.273 630.728C342.828 625.555 337.721 623.602 310.355 623.602C294.818 623.602 275.638 628.475 262.27 631.817C238.678 637.712 228.361 642.003 202.093 642.003C172.212 642.003 142.968 626.24 126.455 603.963C105.651 575.902 70.3436 504.695 94.6676 466.374C102.685 453.747 123.526 436.539 135.599 427.189C138.049 425.292 138.547 424.457 140.65 422.495C142.997 420.298 143.729 420.213 146.066 418.167C156.656 408.845 166.917 398.283 175.676 387.149L192.161 363.576C212.674 331.92 219.508 294.819 205.379 258.751C199.24 243.082 179.741 219.744 169.63 204.639C151.455 177.452 152.169 156.038 174.765 130.737C182.923 121.603 182.754 122.889 189.392 116.139C193.87 111.586 200.197 106.704 205.558 103.071C229.027 87.1586 256.712 71.8657 293.475 84.0418C301.173 86.586 307.576 89.1301 313.828 92.9134C330.736 103.165 351.192 118.101 367.734 126.7C381.036 133.619 393.259 138.989 409.745 143.148C426.089 147.269 443.982 147.344 461.472 149.879C488.96 153.86 508.318 152.189 537.336 160.619C551.755 164.806 565.687 170.561 577.779 178.634C583.299 182.324 589.617 186.464 594.771 190.876C613.856 207.211 653.924 244.538 668.87 262.928C673.507 268.636 676.906 273.678 681.393 279.629C697.897 301.503 712.007 338.022 712.007 365.933C712.007 417.848 700.094 449.372 700.094 489.355C700.094 571.528 751.671 563.999 789.044 594.199C797.127 600.733 814.861 620.007 814.861 633.347V639.844C814.861 654.226 801.934 663.661 788.875 663.661C753.849 663.661 724.352 609.22 688.96 656.854C666.954 686.473 674.652 715.81 692.095 745.288C694.198 748.846 693.963 749.081 699.023 749.194C680.942 722.185 668.719 688.839 690.8 659.774C692.893 657.023 693.935 656.263 696.226 653.287C709.482 636.023 729.234 639.947 745.925 649.241C749.69 651.334 752.29 653.231 756.074 655.334C760.289 657.68 763.256 659.699 767.367 661.361C786.369 669.04 802.61 671.443 813.828 653.954C828.67 630.812 806.149 603.127 788.284 589.562C756.046 565.097 706.947 564.937 704.45 503.418C704.215 497.532 703.192 494.5 703.295 488.248C704.45 418.064 739.927 357.896 684.322 277.789C664.56 249.316 637.467 225.978 612.72 202.16C597.305 187.318 580.454 174.579 560.477 165.623C546.526 159.37 531.149 155.005 515.462 152.179C498.592 149.138 478.877 148.114 461.782 146.321C444.029 144.453 426.793 143.871 409.979 139.665C394.902 135.891 379.469 129.77 367.546 122.551L331.825 99.8135C279.553 66.2518 245.381 69.209 195.146 106.704C186.838 112.9 178.774 119.875 172.259 128.203C163.453 139.468 153.398 153.024 153.398 168.89H153.38Z" fill="white"/>
<path fill-rule="evenodd" clip-rule="evenodd" d="M233.496 181.883C233.496 170.167 236.876 160.966 244.94 155.437C272.625 136.473 299.005 151.062 330.802 162.525C346.348 168.129 371.217 177.377 390.509 178.606L463.002 181.892C485.627 183.113 508.233 182.061 529.835 190.848C546.78 197.739 557.67 204.019 571.029 215.689C610.364 250.02 671.958 296.622 671.958 352.94C671.958 381.31 668.26 400.705 658.515 426.109C650.723 446.415 613.5 530.859 592.48 548.452C571.508 565.998 569.527 565.623 539.871 570.551C529.093 572.345 518.419 573.912 507.651 576.222C487.279 580.587 468.588 586.783 446.151 590.501C419.959 594.838 408.44 595.016 380.276 589.412C338.706 581.132 324.183 567.134 280.267 579.423C276.559 580.456 272.775 582.183 269.095 583.413C264.918 584.802 262.073 585.807 257.942 587.412C241.748 593.683 224.812 599.776 207.52 599.776C170.963 599.776 145.813 563.848 145.813 534.821C145.813 487.581 166.316 470.467 192.096 444.697C213.284 423.509 230.379 404.808 245.071 378.588L255.314 356.348C272.071 314.938 271.001 272.326 253.305 231.376C246.902 216.562 233.496 194.669 233.496 181.892V181.883ZM230.248 178.635C230.248 209.108 263.81 239.562 263.81 287.975C263.81 314.534 261.866 329.639 252.366 354.479C246.132 370.767 239.974 382.803 229.797 396.866C226.512 401.41 223.686 404.892 220.372 409.089C204.525 429.141 185.271 444.556 167.706 464.684C159.98 473.537 156.29 479.921 150.845 491.13C143.71 505.822 142.565 519.378 142.565 535.901C142.565 553.437 153.84 572.617 161.885 582.624C171.574 594.678 191.11 603.024 211.857 603.024C221.789 603.024 228.558 600.715 236.538 598.48C276.399 587.328 294.461 567.547 347.315 584.483C366.391 590.595 390.19 595.974 411.087 596.5C418.663 596.687 420.804 597.814 427.234 596.95C456.675 592.998 478.521 586.633 506.102 580.061C525.347 575.48 553.117 573.678 570.362 567.453C575.366 565.651 578.239 563.792 582.351 561.032C608.618 543.402 623.554 509.314 637.326 481.77C652.572 451.278 675.216 402.114 675.216 365.933C675.216 337.544 671.517 319.134 655.53 294.678L638.697 273.621L578.708 217.773C571.292 211.783 565.631 206.648 557.426 201.165C549.324 195.749 541.833 191.524 531.637 187.975C520.804 184.202 513.838 182.484 501.098 180.625C484.97 178.268 412.139 176.672 391.598 175.377C373.226 174.213 348.132 165.351 331.102 159.004C302.544 148.377 269.846 132.549 242.584 153.099C235.684 158.3 230.248 167.172 230.248 178.663V178.635Z" fill="white"/>
<path fill-rule="evenodd" clip-rule="evenodd" d="M80.8488 171.058C80.8488 178.062 84.8198 186.614 87.6831 192.369C95.3812 207.803 128.736 235.553 142.715 254.263C171.245 292.472 163.744 326.522 134.66 361.286C130.868 365.82 127.601 367.829 123.348 371.631C119.32 375.227 115.546 377.949 110.956 380.887C102.366 386.379 92.4522 391.449 82.3978 395.636C53.192 407.793 21.8082 419.246 7.57614 449.645C-3.77384 473.893 -2.55341 501.362 12.4766 523.086C22.9254 538.191 36.1717 551.653 47.1368 566.374L79.91 611.548C93.3159 629.46 112.326 651.297 131.759 662.543C152.929 674.804 180.689 684.229 214.007 684.229C260.026 684.229 299.061 660.985 345.156 677.583C375.46 688.492 386.425 709.999 366.664 737.29C363.847 741.186 359.379 745.495 356.909 749.194C365.471 748.48 378.558 723.246 378.558 715.632C378.558 705.972 377.891 699.241 370.728 692.059C340.105 661.379 296.63 669.772 257.923 676.193C243.626 678.569 229.863 682.07 213.997 682.07C175.272 682.07 143.626 671.105 118.56 650.846C114.204 647.326 109.632 642.115 105.464 637.956C81.243 613.736 61.2844 580.578 37.6738 550.931C13.1807 520.185 -9.12494 499.964 7.36961 455.953C23.7984 412.121 73.085 405.906 109.05 384.417C123.029 376.062 135.871 364.675 145.156 351.231C171.095 313.67 168.044 274.663 135.242 242.247C132.079 239.121 129.553 237.027 126.765 233.403C107.52 208.469 61.1248 183.432 94.4237 139.186C99.9438 131.854 108.102 124.86 114.673 118.289L135.787 98.2645C144.236 89.8154 153.417 81.648 160.796 72.3915C168.382 62.8909 178.821 55.5777 186.622 46.2462C202.225 27.5736 221.686 2.17933 248.648 2.17933C271.498 2.17933 290.208 11.0978 309.275 20.5796C327.047 29.4136 341.523 40.3787 355.013 53.8691C384.435 83.2908 406.515 105.493 450 116.946C500.967 130.371 519.996 121.087 579.318 145.692C596.911 152.987 612.486 165.106 625.676 178.372L674.399 228.165C678.22 231.939 679.91 234.737 683.599 238.445C701.577 256.526 720.212 288.182 731.14 309.99C739.945 327.574 746.761 347.025 750.385 369.782C753.933 392.068 753.276 417.087 758.778 440.416C767.114 475.771 775.826 491.167 798.282 518.908C801.446 522.814 803.699 525.968 807.003 529.676C810.43 533.516 812.796 537.187 816.222 541.026L842.668 573.039C846.038 577.17 848.16 580.672 851.361 584.915C859.641 595.889 874.399 623.724 874.399 641.993C874.399 689.618 845.259 722.091 843.006 749.175H845.175C847.249 724.194 876.568 688.097 876.568 643.082C876.568 609.389 848.61 577.189 829.084 553.071C825.986 549.25 822.813 545.955 819.649 541.937C774.878 484.971 767.217 487.008 755.924 407.54C754.159 395.157 754.497 383 752.704 370.702C750.967 358.788 748.338 348.706 744.893 338.454C721.893 269.894 677.957 228.484 627.291 177.827C613.425 163.961 599.568 153.25 581.74 144.34C562.655 134.802 541.457 130.822 520.466 126.588C498.226 122.1 473.611 120.739 451.727 115.21C420.916 107.437 403.305 95.4763 382.069 76.6066L356.093 51.6911C342.602 38.1819 326.756 27.9961 310.308 18.4486C297.343 10.9289 267.311 -0.00805664 247.569 -0.00805664C231.083 -0.00805664 211.05 14.1114 200.854 26.8977C198.742 29.5545 198.47 30.1928 195.888 32.7557L170.438 59.2766C155.661 76.0621 139.101 91.5052 123.338 107.446C119.255 111.577 116.044 113.595 111.96 117.716C98.6952 131.141 80.8394 145.016 80.8394 171.04L80.8488 171.058Z" fill="white"/>
<path fill-rule="evenodd" clip-rule="evenodd" d="M132.811 167.81C132.811 183.826 138.303 193.974 146.574 204.939C153.342 213.924 159.529 221.885 166.222 230.756C169.508 235.103 172.569 239.318 175.695 244.021C190.162 265.801 194.527 275.499 194.527 304.216C194.527 340.144 163.519 381.404 138.087 401.513C123.892 412.741 107.924 422.758 93.3723 433.666C81.8815 442.284 58.1113 458.263 58.1113 476.353C58.1113 511.229 84.435 565.754 103.108 596.997C106.215 602.189 108.017 604.583 111.463 609.211C114.796 613.689 117.358 616.242 120.738 620.504C124.991 625.865 131.262 630.812 136.923 634.633C147.86 642.031 158.205 647.701 171.639 651.879C188.922 657.249 211.932 658.694 230.173 654.911C264.232 647.842 297.062 636.37 332.952 639.975C345.747 641.261 361.153 644.472 373.545 648.105C416.175 660.6 452.873 673.828 430.342 720.833C427.807 726.128 424.991 730.625 421.264 735.572L409.97 749.184C415.302 748.743 417.321 743.89 420.466 740.191C427.807 731.554 439.204 712.337 439.204 700.461V692.885C439.204 669.838 413.124 658.863 395.118 652.527C366.635 642.51 341.861 637.665 310.374 637.665C254.938 637.665 211.115 676.888 145.466 638.013C136.829 632.896 129.675 626.391 122.794 619.547C107.529 604.357 92.2364 576.015 84.2566 556.319C82.0787 550.931 80.1354 547.729 77.9198 542.087C71.5266 525.865 50.6761 483.967 64.589 463.332C73.4512 450.189 82.6044 444.491 94.9307 435.215C102.526 429.498 109.613 424.316 117.668 418.974C140.49 403.86 161.735 385.431 176.08 361.539C188.847 340.266 196.696 325.011 196.696 295.551C196.696 279.292 193.222 270.185 187.683 259.089C182.661 249.025 175.685 240.116 169.17 231.047C165.716 226.241 162.862 222.842 159.257 218.223C130.792 181.789 124.765 165.989 153.999 128.353C163.246 116.44 187.505 95.4388 199.775 86.4358C205.483 82.2394 211.275 78.6439 217.462 74.8887C271.921 41.8527 305.746 63.135 351.512 97.4291C397.494 131.883 415.706 136.511 480.248 141.909C523.479 145.523 560.58 152.48 592.79 176.597L656.534 235.187L679.544 260.891C702.957 290.942 719.743 325.63 724.718 364.036L725.019 398.349C724.765 403.296 725.272 408.629 725.009 413.548C723.836 435.225 723.423 457.23 727 478.672C729.272 492.294 731.036 497.833 736.951 507.69C744.358 520.016 755.285 528.043 765.349 537.759C767.236 539.581 768.278 540.942 770.212 542.641L781.14 552.282C783.543 554.198 784.097 554.357 786.463 556.704C796.564 566.721 806.985 575.377 816.279 586.436C819.377 590.125 822.259 593.12 825.056 597.147C848.723 631.178 850.272 658.338 823.366 691.637C813.03 704.432 799.859 712.769 784.914 720.307C766.588 729.545 753.023 727.48 755.839 743.232C756.778 748.518 755.436 746.875 758.562 749.166C761.688 742.519 748.714 735.412 769.517 728.719C775.676 726.738 780.483 724.41 785.787 722.26C826.108 705.934 865.143 654.967 833.064 605.38L811.876 577.855C802.309 566.993 790.809 558.601 780.511 548.593C777.845 546.002 776.624 545.655 773.986 543.214L761.003 531.301C752.272 522.41 745.165 517.359 738.443 506.225C730.99 493.871 729.994 485.441 727.619 468.326C725.723 454.676 725.601 436.342 726.051 421.105L727.169 398.405C727.169 355.719 725.15 335.572 706.252 298.067C697.259 280.212 685.223 262.788 671.695 248.18C658.092 233.488 643.701 220.26 629.459 205.972C617.105 193.58 603.858 182.324 589.842 171.969C533.487 130.371 462.871 149.523 396.189 123.114C365.021 110.769 336.228 78.5218 308.186 66.0453C284.782 55.6341 261.773 52.2545 237.505 62.4779C223.404 68.4204 211.754 74.9826 199.615 84.1264C194.161 88.2383 164.026 113.454 159.698 118.909C149.249 132.07 132.811 146.838 132.811 167.801V167.81Z" fill="white"/>
<path fill-rule="evenodd" clip-rule="evenodd" d="M182.614 171.058C182.614 200.405 213.669 229.789 223.93 257.493C236.679 291.918 229.816 326.804 213.678 359.098C210.449 365.557 205.849 372.936 201.906 378.719C189.195 397.354 173.827 414.233 157.989 430.071C124.033 464.027 110.083 473.067 110.083 522.908C110.083 548.771 126.239 580.568 137.749 595.927C151.934 614.853 178.511 629.01 209.679 629.01C227.92 629.01 243.973 622.889 258.853 618.645C308.797 604.385 321.16 606.385 371.62 616.477C389.101 619.969 404.534 622.495 423.113 624.532C441.119 626.503 460.524 625.217 478.305 628.878C492.133 631.732 510.646 640.388 510.646 657.164C510.646 680.869 499.897 694.218 487.908 710.215L465.18 739.449C462.326 743.11 460.346 745.072 457.595 749.184C465.528 747.063 499.287 698.199 503.952 690.529C519.273 665.341 517.18 636.313 481.656 627.686C477.366 626.644 474.174 626.25 468.626 625.564L425.094 622.551C386.359 621.612 352.488 606.282 311.444 606.282C291.56 606.282 276.192 611.736 260.562 616.026C226.821 625.292 200.676 634.295 167.086 617.481C137.129 602.489 112.242 558.413 112.242 522.917C112.242 488.107 117.067 478.418 136.979 453.465C143.053 445.861 150.563 440.81 157.445 433.873C178.126 413.003 196.827 391.28 212.054 366.148C219.011 354.658 232.417 321.706 232.417 304.226C232.417 259.558 224.014 249.832 203.812 216.993C188.359 191.871 175.338 172.363 193.494 144.049C198.489 136.248 204.375 131.291 211.594 125.339C239.57 102.311 266.035 99.4849 299.963 111.088C306.027 113.163 308.74 115.595 314.335 118.364C328.474 125.358 342.527 134.323 356.928 140.735C366.57 145.026 377.985 149.579 388.528 152.442C416.044 159.915 446.94 161.004 476.005 162.403L505.576 165.313C534.651 169.631 560.862 178.625 582.388 197.851C590.096 204.733 598.385 210.544 605.642 217.904L628.389 238.463C646.508 256.638 665.668 273.537 677.751 297.363C682.858 307.427 687.007 316.186 690.791 327.63C703.154 365.031 692.762 408.234 682.332 444.519C673.414 475.546 663.199 505.033 658.487 537.59L654.187 579.845C653.07 587.863 652.009 593.045 650.31 599.785C638.049 648.499 612.899 675.902 645.766 726.663C649.427 732.324 657.05 747.523 663.303 749.184C635.871 708.225 620.888 685.337 640.875 635.816C645.438 624.513 648.845 614.308 652.047 601.513C655.417 588.031 656.769 577.479 657.98 561.971C663.303 493.458 697.953 419.124 697.953 374.597C697.953 339.308 694.574 320.993 676.521 291.017C665.377 272.523 634.82 239.092 615.837 223.95C589.758 203.146 574.897 183.065 539.242 170.636C528.474 166.881 517.095 165.031 504.506 163.154C482.942 159.924 448.019 159.314 425.038 157.098C411.247 155.765 400.516 153.54 388.547 150.292C367.33 144.528 348.31 134.492 329.14 124.166C324.014 121.406 320.56 119.303 315.068 116.58C299.549 108.882 284.463 101.785 264.908 101.785C230.605 101.785 182.632 134.849 182.632 171.077L182.614 171.058Z" fill="white"/>
<path fill-rule="evenodd" clip-rule="evenodd" d="M206.431 176.466C206.431 143.054 239.636 123.415 269.227 123.415C305.135 123.415 348.029 163.529 414.354 168.824C424.606 169.641 434.144 169.998 444.611 169.96L504.159 174.288C536.923 179.902 555.295 187.938 581.187 208.779C584.388 211.361 586.284 214.017 589.42 216.787C592.875 219.829 594.649 220.918 598.076 224.372C622.137 248.649 649.784 267.744 667.302 299.138C696.714 351.86 684.078 400.377 663.462 451.607C649.925 485.253 623.62 564.149 610.618 590.388C607.332 597.035 602.779 604.169 598.094 609.258C578.549 630.465 567.18 618.796 546.545 610.422C541.917 608.544 536.144 606.338 530.539 604.78C524.794 603.184 516.589 602.799 512.918 602.311C505.774 601.363 500.62 602.818 493.316 602.996C476.427 603.428 456.252 608.422 427.291 608.422C378.774 608.422 345.25 592.181 322.278 592.181C281.835 592.181 275.995 597.983 238.528 609.117C206.168 618.73 171.433 614.9 150.282 586.623C117.105 542.275 122.203 490.397 161.782 451.165C165.931 447.053 168.016 443.777 172.052 439.787L188.293 423.546C205.286 404.254 215.95 390.651 229.121 368.026C233.759 360.056 238.669 346.518 241.758 337.356C269.996 253.334 206.44 207.221 206.44 176.447L206.431 176.466ZM204.262 174.297C204.262 204.442 246.489 238.051 246.489 289.055C246.489 308.995 246.329 317.322 239.861 336.558C238.077 341.871 236.435 346.978 234.135 352.48C222.268 380.878 202.385 406.423 180.717 427.893L149.334 461.464C101.774 514.571 133.646 615.998 205.351 615.998C222.156 615.998 221.789 616.28 238.528 611.276C280.623 598.696 302.91 587.628 348.489 598.443C357.435 600.565 364.476 602.452 373.977 604.357C466.607 622.945 496.104 590.059 544.94 612.027C569.095 622.889 575.573 628.353 592.086 617.313C612.927 603.39 622.963 564.947 631.59 543.139L655.886 476.494C667.208 446.087 686.04 404.141 686.04 370.232C686.04 337.299 683.609 320.899 665.697 292.059C652.385 270.627 635.073 256.779 617.584 239.487L585.515 209.849C548.019 179.836 515.143 168.561 463.012 168.871L405.633 165.623C381.609 162.994 363.697 155.972 342.687 147.373C337.402 145.204 333.468 142.838 328.614 140.876C310.308 133.46 290.866 121.237 265.978 121.237C247.005 121.237 220.419 134.267 210.965 151.757C208.083 157.08 204.262 166.702 204.262 174.288V174.297Z" fill="white"/>
<path fill-rule="evenodd" clip-rule="evenodd" d="M268.137 199.203C268.137 184.014 278.718 175.386 286.538 175.386C303.37 175.386 329.018 182.277 345.625 185.581C374.531 191.346 381.6 190.538 409.951 190.538C502.234 190.538 521.695 185.356 575.329 233.019L602.92 257.399C613.688 266.881 637.336 291.28 644.151 302.78C665.931 339.571 664.129 364.355 653.558 404.911L641.917 435.497C629.206 462.252 612.852 494.847 592.105 515.594C565.443 542.266 547.493 542.087 514.823 553.071C502.666 557.155 437.354 579.198 425.113 579.198C397.287 579.198 385.571 578.803 359.228 568.214C352.103 565.35 322.315 553.212 314.683 553.212C295.24 553.212 276.408 559.877 263.068 566.552C242.659 576.766 214.476 591.345 189.439 578.86C174.747 571.528 163.115 552.207 163.115 536.971C163.115 517.078 164.082 512.421 173.216 494.021C182.341 475.649 200.197 461.614 215.321 448.433L239.223 427.94C249.596 419.209 252.056 416.627 260.261 405.671C278.624 381.169 287.617 329.658 287.617 296.622C287.617 279.723 284.407 258.939 280.426 245.354C278.107 237.45 275.986 230.089 273.676 222.87C271.855 217.172 268.128 205.709 268.128 199.184L268.137 199.203ZM265.969 195.955C265.969 209.558 274.024 231.113 278.014 244.537C290.518 286.699 286.078 335.525 272.616 375.818C265.8 396.208 253.427 414.862 236.744 427.639C224.305 437.159 188.725 467.772 179.675 479.911C160.458 505.662 151.211 545.523 174.747 569.753C179.497 574.644 181.853 577.076 188.012 580.305C209.05 591.327 231.759 584.004 251.54 574.504C271.273 565.031 289.119 555.38 314.692 555.38C330.238 555.38 371.564 581.366 407.801 581.366C428.83 581.366 421.62 582.69 439.814 578.737C456.215 575.179 504.271 558.582 524.859 552.273C540.631 547.438 558.731 542.453 571.339 534.877C589.645 523.884 607.651 505.089 617.461 485.732C621.282 478.202 625.075 472.617 628.999 464.797C629.994 462.806 630.717 461.652 631.675 459.896C632.82 457.793 633.139 456.723 634.078 454.723C635.777 451.118 637.758 448.443 639.852 444.256C641.861 440.228 643.044 436.736 644.884 433.047C661.406 399.823 670.334 351.86 653.934 316.843C649.005 306.319 643.776 297.1 635.993 288.229C624.23 274.804 609.181 260.459 595.916 248.189C592.799 245.307 590.969 244.434 587.777 241.167C584.407 237.722 582.36 236.633 579.112 233.591C521.968 180.118 488.321 188.379 400.216 188.379C388.988 188.379 379.619 188.154 369.874 187.328C347.503 185.431 306.102 173.218 287.627 173.218C277.037 173.218 265.978 185.084 265.978 195.955H265.969Z" fill="white"/>
<path fill-rule="evenodd" clip-rule="evenodd" d="M359.078 294.472C359.078 273.03 358.862 254.77 379.29 242.144C395.606 232.061 425.835 223.574 445.982 220.063C453.117 218.815 465.987 217.106 473.207 218.223C491.316 221.03 497.137 217.313 521.47 229.517C547.277 242.453 552.694 250.583 572.09 267.669C575.357 270.542 576.953 271.396 580.201 274.71C590.415 285.14 591.325 283.019 606.233 300.64C623.103 320.589 631.891 333.385 631.891 363.755C631.891 391.505 616.034 426.644 604.609 443.655C596.958 455.052 590.706 463.633 580.745 472.842C559.407 492.585 536.284 499.213 508.008 507.286C485.186 513.801 468.072 519.462 444.808 525.283C433.008 528.231 435.167 527.987 421.846 527.236C384.904 525.151 397.221 484.53 394.949 464.28C393.86 454.611 394.527 446.453 393.119 436.886C390.387 418.383 386.669 405.625 381.675 389.872C372.963 362.422 359.069 323.631 359.069 294.472H359.078ZM355.83 279.32C355.83 320.495 358.524 327.339 370.85 367.144C390.809 431.601 391.926 428.982 391.551 494.763C391.504 503.597 392.058 507.286 394.79 513.172C399.052 522.363 407.013 529.714 419.733 530.456C428.22 530.953 430.727 532.436 439.007 530.287C444.433 528.878 450.347 527.555 456.299 525.921L504.835 511.661C510.665 509.765 516.241 508.45 521.611 506.789C532.538 503.4 543.25 500.33 552.873 495.833C555.708 494.509 556.722 493.514 559.735 491.871L579.008 478.672C608.036 455.296 635.139 400.996 635.139 364.834C635.139 336.483 628.502 322.251 612.157 302.292C605.849 294.594 600.159 289.271 593.184 282.286L563.359 254.733C543.907 238.464 527.826 225.152 501.971 218.683C483.947 214.177 466.626 213.135 447.662 216.346C440.987 217.472 436.5 218.815 430.088 220.429C408.074 225.968 383.9 230.934 367.968 247.082C361.463 253.672 355.811 266.571 355.811 279.31L355.83 279.32Z" fill="white"/>
<path fill-rule="evenodd" clip-rule="evenodd" d="M321.189 266.327C321.189 223.415 328.492 220.608 373.911 214.036C388.19 211.971 403.53 210.506 419.095 208.338C468.86 201.409 510.815 201.212 550.723 231.657C559.435 238.304 570.606 249.936 578.398 255.953C582.388 259.032 584.604 261.764 588.763 265.078C597.878 272.354 619.367 295.504 628.042 306.995C663.725 354.273 636.453 416.655 609.632 460.572C598.047 479.545 575.056 502.508 553.333 511.454C550.798 512.496 549.503 513.313 547.456 514.233C537.073 518.899 521.189 523.171 510.242 526.822L460.852 544.556C453.042 547.682 445.137 551.287 436.19 553.456C424.324 556.338 419.687 556.394 407.463 554.629C388.143 551.832 374.587 548.377 362.617 532.352C341.222 503.691 361.237 488.783 361.237 448.199C361.237 409.107 335.458 379.047 327.929 344.012C324.352 327.395 321.179 283.056 321.179 266.317L321.189 266.327ZM319.02 264.158C319.02 292.716 322.174 335.356 331.328 362.281C346.264 406.244 368.504 423.903 354.966 480.897C349.944 502.048 346.818 513.144 359.688 532.042C363.716 537.956 371.395 545.101 377.835 548.537C391.908 556.056 416.279 559.821 431.75 556.601C441.175 554.639 448.629 551.616 456.985 548.274C476.652 540.407 514.242 526.794 533.158 521.603C566.419 512.478 592.377 490.717 610.702 462.731C613.059 459.126 614.72 456.075 616.814 452.602C619.104 448.8 620.541 445.589 622.897 441.364C645.644 400.658 660.58 346.209 629.131 304.827C619.226 291.787 608.13 280.503 596.47 269.284C593.231 266.167 591.11 265.135 587.786 261.736C581.187 254.977 551.436 229.235 542.058 223.02C499.456 194.744 449.287 202.592 398.939 208.76C388.331 210.065 379.779 211.098 369.133 212.515C354.103 214.515 329.619 217.932 322.972 233.479C320.475 239.337 319.02 255.841 319.02 264.177V264.158Z" fill="white"/>
<path fill-rule="evenodd" clip-rule="evenodd" d="M480.332 261.999C499.014 261.999 510.899 267.256 523.704 274.926C529.703 278.522 534.416 281.948 539.889 285.807C560.327 300.217 581.787 318.411 592.949 341.008C603.07 361.492 599.803 379.733 592.536 400.17C585.364 420.336 569.179 439.938 550.009 449.663C536.425 456.554 525.488 461.192 509.575 461.192C486.247 461.192 467.987 453.034 456.299 434.352C434.838 400.048 428.154 342.153 438.105 300.95C439.542 295.007 440.349 291.58 443.165 286.52C450.582 273.236 465.894 261.99 480.342 261.99L480.332 261.999ZM429.45 343.195C429.45 370.702 438.378 405.869 447.474 424.767C461.538 453.991 478.22 464.449 513.894 464.449C525.526 464.449 541.541 457.606 549.643 453.644C561.462 447.88 574.812 436.905 581.9 426.363C583.627 423.79 584.989 421.809 586.641 419.19C589.936 413.942 592.302 409.765 594.789 403.522C610.129 364.994 602.553 338.37 574.249 309.896L552.262 290.745C549.221 288.464 546.949 286.793 544.207 284.727C519.686 266.271 484.763 246.246 455.097 268.148C448.263 273.19 443.682 278.437 439.532 286.145C433.787 296.819 429.45 326.616 429.45 343.186V343.195Z" fill="white"/>
<path fill-rule="evenodd" clip-rule="evenodd" d="M471.677 232.765C501.558 232.765 527.92 243.768 547.184 263.36L582.37 294.218C624.099 330.963 628.708 370.946 604.487 419.707C593.701 441.411 576.164 462.412 554.337 473.49C545.625 477.912 539.655 480.202 529.732 483.535C511.51 489.665 468.222 496.772 448.254 488.952C441.833 486.436 437.561 482.634 434.21 477.01C424.653 460.948 415.302 419.04 409.332 397.955C405.436 384.201 401.643 370.317 399.277 356.047C395.297 332.024 391.607 311.764 396.01 287.027C397.4 279.226 399.155 273.546 402.347 267.378C411.913 248.903 449.831 232.775 471.667 232.775L471.677 232.765ZM621.076 363.764C621.076 335.751 604.506 309.295 584.726 294.021L553.126 266.073C530.295 244.838 508.674 230.606 472.756 230.606C450.366 230.606 421.311 244.04 409.67 255.212C401.192 263.351 397.315 270.57 394.367 284.295C384.989 327.902 405.004 389.984 416.682 432.831C419.705 443.909 422.465 456.498 426.972 466.928C437.11 490.388 444.565 491.327 464.861 494.002C478.314 495.767 510.627 491.261 524.043 487.581C561.04 477.433 580.023 461.896 600.075 431.535C610.561 415.651 621.085 389.637 621.085 363.764H621.076Z" fill="white"/>
<path fill-rule="evenodd" clip-rule="evenodd" d="M458.684 364.843C458.684 328.099 468.297 278.944 518.241 298.79C544.752 309.323 582.097 336.783 582.097 369.171C582.097 385.6 575.385 405.653 563.95 417.059C554.365 426.625 535.158 439.543 520.39 439.543C498.46 439.543 483.843 430.127 474.756 416.975C467.077 405.859 458.684 383.309 458.684 364.843ZM456.515 358.347C456.515 382.033 462.336 402.142 472.953 417.688C478.135 425.264 483.092 430.39 491.494 434.877C519.883 450.029 544.977 438.079 565.603 417.632C577.835 405.502 584.266 385.938 584.266 368.092C584.266 329.967 525.882 292.312 500.901 292.312C483.768 292.312 474.221 296.584 465.152 315.022C460.589 324.288 456.515 344.406 456.515 358.356V358.347Z" fill="white"/>
<path fill-rule="evenodd" clip-rule="evenodd" d="M490.077 370.26C490.077 325.302 534.106 326.945 551.755 357.296C568.062 385.337 538.265 420.777 509.51 406.038C499.052 400.677 490.077 386.164 490.077 370.26ZM486.829 367.012C486.829 391.515 500.084 413.004 523.573 413.407C545.832 413.792 578.361 377.301 547.212 345.598C532.304 330.428 504.459 326.503 494.142 342.932C490.865 348.143 486.829 358.967 486.829 367.012Z" fill="white"/>
<path fill-rule="evenodd" clip-rule="evenodd" d="M477.084 749.175C481.834 749.072 481.29 748.893 483.928 746.274C485.824 744.387 486.838 743.214 488.725 741.327L509.294 721.838C513.472 717.66 515.499 715.867 520.071 712.046C524.042 708.732 525.939 706.188 530.276 702.761C538.5 696.256 558.224 680.972 569.114 680.972C582.407 680.972 590.696 694.528 598.62 703.428L630.98 741.44C634.144 745.382 635.129 749.034 641.645 749.175L592.612 691.036C575.544 670.627 561.359 676.738 541.382 690.05C536.716 693.157 533.993 695.533 529.666 698.903L508.224 718.599C501.361 725.536 482.867 740.548 477.093 749.175H477.084Z" fill="white"/>
<path fill-rule="evenodd" clip-rule="evenodd" d="M221.592 548.894C192.49 548.894 193.137 519.979 208.299 504.207C230.567 481.047 257.313 489.44 257.313 508.835C257.313 519.125 252.685 527.348 245.851 534.183C240.546 539.487 225 548.894 221.583 548.894H221.592ZM194.527 529.404C194.527 543.749 207.257 552.836 220.672 551.907C220.982 551.888 221.789 551.813 222.08 551.776C234.895 549.851 260.561 533.497 260.561 507.756C260.561 491.824 241.551 480.287 221.573 490.416C217.415 492.519 215.227 493.674 211.575 496.659C207.492 500.001 206.844 500.687 203.502 504.827C199.099 510.272 194.527 520.054 194.527 529.414V529.404Z" fill="white"/>
<path fill-rule="evenodd" clip-rule="evenodd" d="M499.822 749.175C506.666 749.175 504.957 748.574 513.434 742.219C547.719 716.505 570.372 714.599 605.314 741.12C612.467 746.556 612.815 749.175 619.996 749.175C585.224 718.946 563.622 708.516 524.381 730.427C519.79 732.99 515.481 736.163 511.585 739.28L499.822 749.175Z" fill="white"/>
<path fill-rule="evenodd" clip-rule="evenodd" d="M530.135 749.175C548.404 749.175 547.428 741.618 572.484 746.875C579.272 748.302 578.708 749.175 587.514 749.175C581.994 744.378 564.767 741.599 558.28 741.599C551.605 741.599 535.608 744.425 530.135 749.175Z" fill="white"/>
</svg>
