<svg width="405" height="275" viewBox="0 0 405 275" fill="none" xmlns="http://www.w3.org/2000/svg">
<path fill-rule="evenodd" clip-rule="evenodd" d="M72.535 168.893C72.535 209.317 113.434 226.536 125.499 274.252H129.299C128.112 269.074 126.521 263.896 124.502 258.719C118.374 243.043 98.8509 219.72 88.7568 204.614C70.5875 177.42 71.3 156.02 93.887 130.726C102.034 121.581 101.891 122.864 108.518 116.119C113.006 111.559 119.324 106.69 124.692 103.056C148.158 87.1428 175.851 71.8473 212.617 84.0314C220.313 86.5728 226.725 89.1141 232.972 92.9142C249.882 103.175 270.332 118.09 286.886 126.712C300.187 133.623 312.418 138.991 328.901 143.147C345.242 147.28 363.126 147.351 380.631 149.892C389.11 151.128 396.805 151.816 404.263 152.434V148.491C396.283 147.779 388.35 147.137 380.916 146.354C363.15 144.477 345.931 143.907 329.115 139.703C314.033 135.927 298.595 129.799 286.696 122.579L250.975 99.8495C198.699 66.2896 164.522 69.2347 114.289 106.737C105.976 112.936 97.9247 119.895 91.3932 128.232C82.5816 139.49 72.535 153.051 72.535 168.917V168.893Z" fill="white"/>
<path fill-rule="evenodd" clip-rule="evenodd" d="M152.647 181.885C152.647 170.176 156.019 160.96 164.094 155.45C191.788 136.497 218.151 151.08 249.954 162.528C265.487 168.133 290.378 177.372 309.663 178.607L382.151 181.885C389.537 182.289 396.9 182.431 404.263 182.787V179.272C376.617 177.633 327.096 176.398 310.756 175.377C292.373 174.213 267.292 165.354 250.262 159.013C221.714 148.372 189.009 132.554 161.743 153.099C154.832 158.3 149.416 167.183 149.416 178.655C149.416 206.158 176.73 233.614 182.074 274.275H184.805C182.715 259.859 178.582 245.513 172.478 231.381C166.09 216.561 152.67 194.663 152.67 181.885H152.647Z" fill="white"/>
<path fill-rule="evenodd" clip-rule="evenodd" d="M8.14348e-06 171.054C8.14348e-06 178.061 3.9664 186.611 6.84024 192.359C14.5355 207.797 47.9054 235.538 61.8709 254.254C66.9298 261.046 70.8725 267.697 73.7463 274.252H76.4539C71.9887 263.089 64.6497 252.353 54.4131 242.236C51.2543 239.101 48.7367 237.01 45.9341 233.4C26.6959 208.462 -19.7132 183.429 13.5855 139.181C19.0957 131.842 27.2659 124.859 33.8212 118.28L54.9357 98.2582C63.3909 89.8029 72.5588 81.6326 79.9453 72.3935C87.5218 62.8932 97.9721 55.5779 105.762 46.2439C121.367 27.5757 140.819 2.18611 167.8 2.18611C190.648 2.18611 209.363 11.1164 228.435 20.593C246.201 29.4283 260.689 40.4012 274.179 53.8916C303.607 83.3189 325.671 105.526 369.159 116.974C382.649 120.536 393.907 122.484 404.263 123.909V121.201C392.886 119.634 381.557 117.948 370.893 115.24C340.088 107.473 322.465 95.5031 301.232 76.6449L275.248 51.7303C261.758 38.2161 245.916 28.027 229.457 18.4792C216.489 10.9502 186.468 0.0247803 166.707 0.0247803C150.224 0.0247803 130.178 14.1565 119.989 26.9345C117.875 29.5946 117.614 30.2358 115.025 32.8009L89.5643 59.3306C74.7913 76.1224 58.237 91.5604 42.4665 107.497C38.3813 111.63 35.175 113.649 31.0898 117.781C17.8131 131.201 -0.0237427 145.071 -0.0237427 171.102L8.14348e-06 171.054Z" fill="white"/>
<path fill-rule="evenodd" clip-rule="evenodd" d="M51.9668 167.801C51.9668 183.809 57.4532 193.95 65.7185 204.923C72.4875 213.901 78.6627 221.881 85.3604 230.74C88.6381 235.087 91.7019 239.291 94.837 244.017C102.817 256.035 107.71 264.371 110.513 274.252H113.078C111.534 269.003 109.396 264.276 106.831 259.099C101.82 249.028 94.837 240.122 88.3056 231.049C84.8379 226.228 82.0116 222.855 78.4015 218.224C49.9242 181.79 43.9153 165.995 73.1525 128.35C82.3916 116.451 106.665 95.4318 118.92 86.4302C124.644 82.2263 130.416 78.64 136.615 74.8873C191.075 41.8499 224.897 63.1307 270.664 97.4269C316.646 131.889 334.863 136.497 399.418 141.912C401.056 142.055 402.671 142.197 404.286 142.34V140.582C374.93 137.542 344.767 134.763 315.363 123.102C284.202 110.751 255.393 78.5212 227.367 66.0283C203.972 55.6254 180.958 52.2291 156.684 62.4657C142.576 68.4034 130.938 74.9586 118.802 84.1264C113.339 88.2353 83.2229 113.459 78.8765 118.921C68.4261 132.079 51.9905 146.852 51.9905 167.824L51.9668 167.801Z" fill="white"/>
<path fill-rule="evenodd" clip-rule="evenodd" d="M101.772 171.054C101.772 200.387 132.838 229.79 143.099 257.484C145.165 263.065 146.709 268.647 147.801 274.252H149.63C146.115 252.52 137.66 240.858 122.982 216.989C107.52 191.86 94.5045 172.361 112.674 144.05C117.662 136.26 123.552 131.296 130.772 125.334C158.751 102.32 185.209 99.4695 219.149 111.084C225.205 113.15 227.913 115.596 233.518 118.351C247.65 125.358 261.71 134.312 276.103 140.725C285.746 145.024 297.17 149.56 307.692 152.434C335.219 159.915 366.095 160.984 395.166 162.385L404.263 163.288V161.055C384.502 159.488 361.084 158.728 344.173 157.089C330.398 155.759 319.639 153.526 307.668 150.272C286.459 144.501 267.434 134.478 248.267 124.147C243.137 121.391 239.693 119.278 234.207 116.57C218.698 108.875 203.592 101.773 184.045 101.773C149.749 101.773 101.772 134.834 101.772 171.054Z" fill="white"/>
<path fill-rule="evenodd" clip-rule="evenodd" d="M125.594 176.47C125.594 143.052 158.798 123.41 188.392 123.41C224.303 123.41 267.197 163.525 333.533 168.822C343.793 169.629 353.317 170.009 363.791 169.962L404.286 172.907V169.534C397.304 169.036 389.965 168.822 382.198 168.869L324.816 165.616C300.804 162.979 282.872 155.973 261.877 147.375C256.58 145.214 252.661 142.838 247.816 140.867C229.504 133.457 210.076 121.225 185.185 121.225C166.208 121.225 139.631 134.264 130.178 151.745C127.304 157.065 123.481 166.684 123.481 174.285C123.481 201.408 157.658 231.358 164.522 274.228H166.351C158.157 228.294 125.666 198.439 125.666 176.446L125.594 176.47Z" fill="white"/>
<path fill-rule="evenodd" clip-rule="evenodd" d="M187.299 199.199C187.299 183.999 197.892 175.377 205.706 175.377C222.545 175.377 248.196 182.265 264.798 185.566C293.703 191.338 300.78 190.53 329.139 190.53C361.677 190.53 385.167 189.889 404.286 191.148V188.915C381.414 187.039 354.813 188.369 319.401 188.369C308.167 188.369 298.809 188.131 289.047 187.324C266.674 185.424 225.277 173.216 206.798 173.216C196.206 173.216 185.138 185.091 185.138 195.945C185.138 209.555 193.189 231.097 197.179 244.54C200.029 254.159 202.001 264.134 203.188 274.252H205.302C203.996 263.635 201.929 253.28 199.602 245.371C197.274 237.462 195.16 230.099 192.857 222.879C191.028 217.179 187.299 205.731 187.299 199.199Z" fill="white"/>
<path fill-rule="evenodd" clip-rule="evenodd" d="M278.93 274.252C280.378 261.521 284.796 250.572 298.453 242.141C314.77 232.07 345.004 223.568 365.145 220.052C372.27 218.817 385.143 217.107 392.364 218.224C396.947 218.936 400.748 219.221 404.263 219.459V215.468C392.055 213.925 379.823 214.138 366.831 216.324C360.157 217.464 355.669 218.794 349.256 220.409C327.239 225.943 303.06 230.907 287.124 247.057C281.471 252.781 276.483 263.231 275.248 274.228H278.906L278.93 274.252Z" fill="white"/>
<path fill-rule="evenodd" clip-rule="evenodd" d="M240.358 266.343C240.358 223.425 247.65 220.622 293.085 214.043C307.359 211.977 322.702 210.505 338.283 208.343C361.82 205.066 383.623 203.284 404.287 205.564V203.712C376.593 201.004 347.38 205.161 318.119 208.747C307.502 210.053 298.952 211.075 288.311 212.5C273.277 214.495 248.79 217.915 242.14 233.472C239.646 239.338 238.197 255.821 238.197 264.158C238.197 267.364 238.245 270.737 238.316 274.252H240.525C240.43 271.212 240.358 268.528 240.358 266.319V266.343Z" fill="white"/>
<path fill-rule="evenodd" clip-rule="evenodd" d="M399.489 261.996C401.128 261.996 402.719 262.044 404.263 262.115V258.6C394.074 258.362 383.885 261.046 374.242 268.172C371.582 270.119 369.278 272.114 367.188 274.276H372.033C379.847 267.008 389.846 262.02 399.465 262.02L399.489 261.996Z" fill="white"/>
<path fill-rule="evenodd" clip-rule="evenodd" d="M390.843 232.759C395.404 232.759 399.893 233.02 404.286 233.519V231.191C400.368 230.788 396.259 230.574 391.936 230.574C369.539 230.574 340.492 244.017 328.854 255.18C322.726 261.07 318.997 266.485 316.29 274.228H318.499C319.354 271.9 320.351 269.668 321.539 267.34C331.11 248.862 369.017 232.735 390.867 232.735L390.843 232.759Z" fill="white"/>
</svg>
